<?xml version="1.0" standalone="no"?>
<!DOCTYPE svg PUBLIC "-//W3C//DTD SVG 20010904//EN"
 "http://www.w3.org/TR/2001/REC-SVG-20010904/DTD/svg10.dtd">
<svg version="1.0" xmlns="http://www.w3.org/2000/svg"
 width="1004.000000pt" height="591.000000pt" viewBox="0 0 1004.000000 591.000000"
 preserveAspectRatio="xMidYMid meet">

<g transform="translate(0.000000,591.000000) scale(0.100000,-0.100000)"
fill="#000000" stroke="none">
<path d="M0 2955 l0 -2955 5020 0 5020 0 0 2955 0 2955 -5020 0 -5020 0 0
-2955z m8673 1956 c20 -5 49 -16 63 -25 l25 -17 -20 -28 -21 -29 -40 20 c-50
25 -105 18 -116 -14 -7 -24 25 -58 55 -58 38 0 96 -24 123 -50 31 -31 38 -87
17 -133 -35 -77 -205 -83 -272 -10 -17 19 -16 21 4 46 l20 27 35 -27 c25 -19
48 -26 80 -27 48 -1 64 12 64 52 0 25 -13 32 -100 56 -74 20 -105 53 -105 111
0 83 84 130 188 106z m567 -2 c45 -10 100 -52 100 -76 0 -7 -13 -19 -30 -28
-27 -14 -30 -14 -39 4 -29 54 -136 48 -166 -9 -19 -37 -19 -133 0 -170 30 -58
141 -61 167 -4 13 27 17 28 53 12 30 -14 30 -14 5 -55 -26 -44 -74 -66 -140
-66 -63 0 -106 19 -143 63 -32 37 -41 80 -35 165 5 89 51 146 129 165 46 11
48 11 99 -1z m-3430 -34 l0 -35 -85 0 -85 0 0 -50 0 -50 75 0 75 0 0 -30 0
-30 -75 0 -75 0 0 -80 0 -80 -40 0 -40 0 0 195 0 195 125 0 125 0 0 -35z m140
-89 c0 -67 5 -137 11 -154 19 -55 111 -67 144 -19 12 16 15 54 15 159 l0 138
41 0 41 0 -4 -153 c-3 -170 -10 -192 -71 -223 -39 -21 -130 -23 -174 -5 -62
26 -73 59 -73 230 l0 151 35 0 35 0 0 -124z m517 -3 l78 -126 3 126 3 127 39
0 40 0 0 -195 0 -195 -43 0 -42 0 -85 136 -85 137 -3 -137 -3 -136 -34 0 -35
0 0 195 0 195 44 0 44 0 79 -127z m345 47 l3 -80 65 80 c63 77 66 80 108 80
l43 0 -20 -27 c-11 -16 -45 -57 -74 -93 l-54 -65 78 -97 c44 -53 79 -99 79
-102 0 -3 -20 -6 -44 -6 -42 0 -45 2 -115 86 l-71 86 0 -86 0 -86 -40 0 -40 0
0 195 0 195 40 0 39 0 3 -80z m360 5 c24 -41 45 -75 49 -75 3 0 24 34 48 75
41 73 43 75 82 75 21 0 39 -2 39 -5 0 -3 -29 -57 -65 -119 -64 -112 -65 -114
-65 -190 l0 -76 -40 0 -40 0 0 77 c0 76 0 77 -65 188 -36 62 -65 115 -65 119
0 3 18 6 40 6 39 0 41 -1 82 -75z m558 -62 c25 -73 48 -135 51 -138 4 -3 28
57 55 135 l48 140 53 0 53 0 0 -195 0 -195 -40 0 -39 0 -3 128 -3 127 -45
-128 -45 -128 -35 3 -35 3 -45 128 -45 129 -3 -131 -3 -131 -34 0 -35 0 0 196
0 195 52 -3 52 -3 46 -132z m430 5 c0 -86 5 -142 13 -158 26 -52 121 -48 146
6 6 14 11 80 11 154 l0 130 41 0 41 0 -4 -147 c-5 -166 -16 -201 -71 -230 -43
-22 -141 -22 -185 1 -57 30 -72 78 -72 239 l0 137 40 0 40 0 0 -132z m760 -63
l0 -195 -40 0 -40 0 0 195 0 195 40 0 40 0 0 -195z m-3880 -1760 c0 -1571 -2
-1775 -15 -1775 -13 0 -15 204 -15 1775 0 1571 2 1775 15 1775 13 0 15 -204
15 -1775z m1544 1278 c3 -4 6 -1 6 5 0 6 10 37 22 69 l22 58 17 -70 c20 -82
22 -105 10 -105 -6 0 -13 20 -17 45 -3 25 -9 47 -13 50 -4 2 -15 -18 -25 -45
-10 -28 -22 -48 -26 -45 -5 3 -16 29 -26 58 l-18 52 -12 -53 c-12 -53 -20 -70
-29 -61 -4 4 20 126 32 159 3 9 14 -12 28 -48 13 -35 26 -66 29 -69z m182 92
c43 -103 53 -135 43 -135 -6 0 -13 9 -16 20 -4 16 -14 20 -43 20 -30 0 -40 -5
-45 -20 -3 -11 -11 -20 -17 -20 -5 0 -7 8 -4 18 28 74 60 152 63 152 2 0 11
-16 19 -35z m169 10 c54 -53 16 -145 -60 -145 l-35 0 0 85 0 85 35 0 c25 0 44
-8 60 -25z m150 15 c-3 -5 -22 -10 -41 -10 -31 0 -34 -2 -34 -30 0 -28 3 -30
35 -30 19 0 35 -4 35 -10 0 -5 -16 -10 -35 -10 -31 0 -35 -3 -35 -25 0 -22 4
-25 34 -25 19 0 38 -4 41 -10 4 -6 -13 -10 -44 -10 l-51 0 0 85 0 85 51 0 c31
0 48 -4 44 -10z m185 -5 c7 -8 9 -26 5 -44 -3 -17 -2 -32 4 -36 18 -11 12 -54
-8 -65 -11 -5 -36 -10 -55 -10 l-36 0 0 85 0 85 39 0 c22 0 44 -6 51 -15z m73
-21 l25 -35 22 35 c12 20 26 36 31 36 14 0 11 -8 -16 -48 -17 -25 -25 -50 -25
-79 0 -24 -4 -43 -10 -43 -5 0 -10 17 -10 38 0 21 -6 46 -13 57 -39 57 -48 75
-39 75 6 0 22 -16 35 -36z m266 -47 c35 -87 35 -87 22 -87 -5 0 -13 9 -16 20
-5 15 -15 20 -40 20 -24 0 -38 -6 -45 -20 -6 -11 -15 -20 -20 -20 -5 0 3 28
17 63 14 34 29 73 34 86 5 13 11 22 13 20 3 -2 18 -39 35 -82z m151 73 c0 -5
-18 -10 -40 -10 -38 0 -40 -2 -40 -30 0 -28 2 -30 40 -30 22 0 40 -4 40 -10 0
-5 -18 -10 -40 -10 -39 0 -40 -1 -40 -35 0 -19 -4 -35 -10 -35 -6 0 -10 35
-10 85 l0 85 50 0 c28 0 50 -4 50 -10z m80 -59 c0 -74 -14 -101 -51 -101 -27
0 -24 18 4 22 20 3 22 9 25 76 4 92 22 95 22 3z m119 -14 c35 -87 35 -87 22
-87 -5 0 -13 9 -16 20 -5 15 -15 20 -40 20 -24 0 -38 -6 -45 -20 -6 -11 -15
-20 -20 -20 -5 0 3 28 17 63 14 34 29 73 34 86 5 13 11 22 13 20 3 -2 18 -39
35 -82z m71 8 l0 -75 30 0 c17 0 30 -4 30 -10 0 -5 -18 -10 -40 -10 l-40 0 0
85 c0 50 4 85 10 85 6 0 10 -32 10 -75z m-4750 -356 c-11 -8 -12 -12 -2 -16
15 -6 15 -24 0 -60 -6 -15 -12 -30 -13 -33 -14 -54 -51 -113 -66 -105 -5 4 -6
0 -3 -8 3 -9 -7 -24 -27 -38 -18 -13 -29 -17 -24 -9 5 9 4 11 -3 6 -7 -4 -12
-14 -12 -23 0 -11 -6 -14 -24 -9 -14 3 -28 2 -31 -4 -4 -6 1 -7 11 -3 11 4 15
3 10 -5 -3 -6 -31 -18 -61 -26 -43 -13 -116 -17 -360 -19 l-307 -2 -19 -24
c-17 -20 -19 -40 -19 -162 l0 -139 -77 -2 c-43 -1 -89 -1 -103 0 -19 1 -22 -1
-10 -8 13 -9 13 -10 0 -10 -9 0 -46 -20 -83 -44 -41 -27 -68 -39 -71 -32 -3 6
-3 1 0 -11 3 -14 1 -23 -6 -23 -8 0 -10 83 -8 308 l3 307 27 46 c28 47 58 79
58 61 0 -5 -7 -15 -16 -22 -22 -19 -37 -50 -24 -50 5 0 10 6 10 13 0 8 9 22
20 32 11 10 18 26 15 34 -5 17 11 30 85 67 l45 23 550 0 c390 1 546 -2 535
-10z m-366 -797 c-3 -108 -97 -241 -209 -296 -60 -29 -164 -47 -261 -45 -38 1
-70 -3 -79 -11 -13 -11 -15 -69 -15 -418 l0 -405 -55 6 c-121 12 -240 98 -298
216 l-32 66 0 360 c0 354 0 361 23 402 50 95 137 159 236 173 28 4 195 7 371
6 l320 -1 -1 -53z m3114 -1238 c12 -4 22 -13 22 -20 0 -10 -7 -13 -25 -8 -14
3 -36 3 -50 0 -21 -5 -25 -12 -25 -44 0 -36 1 -37 35 -37 44 0 46 -18 3 -25
-31 -5 -33 -7 -34 -47 -1 -48 -10 -65 -24 -43 -15 23 -12 183 3 202 20 25 52
33 95 22z m643 -50 c13 -27 28 -44 38 -44 17 0 41 38 41 64 0 8 6 19 14 25 37
31 19 -67 -21 -111 -10 -11 -16 -37 -17 -65 -1 -65 -20 -71 -24 -9 -2 35 -11
58 -28 79 -29 35 -56 95 -48 108 9 15 23 0 45 -47z m752 42 c25 -19 22 -40 -5
-31 -58 18 -66 17 -78 -5 -17 -31 -5 -50 30 -50 78 0 96 -102 23 -127 -35 -12
-93 2 -93 22 0 12 9 13 44 9 38 -6 45 -4 56 15 15 29 -2 51 -41 51 -56 0 -77
55 -38 104 23 29 71 35 102 12z m77 -112 c0 -95 -3 -114 -15 -114 -12 0 -15
19 -15 113 0 63 3 117 6 120 18 17 24 -14 24 -119z m166 103 c19 -17 25 -29
20 -42 -6 -17 -8 -17 -29 4 -45 41 -85 22 -94 -46 -9 -69 63 -124 95 -73 7 11
17 20 23 20 19 0 4 -43 -22 -63 -35 -26 -75 -13 -107 34 -43 63 -13 169 52
182 11 2 24 5 28 6 4 0 19 -10 34 -22z m215 13 c5 0 16 -11 24 -24 15 -22 15
-27 0 -56 -12 -23 -14 -35 -6 -43 32 -32 -5 -107 -53 -107 -47 0 -57 23 -54
128 3 93 4 96 28 103 14 4 31 5 38 3 8 -2 18 -4 23 -4z m178 1 c21 -13 5 -28
-26 -24 -37 5 -51 -6 -59 -44 -6 -31 -5 -32 32 -35 50 -4 51 -22 2 -26 -29 -2
-38 -8 -38 -22 0 -40 11 -50 56 -50 32 0 44 -4 44 -15 0 -22 -93 -21 -111 1
-16 20 -24 118 -12 164 13 49 72 76 112 51z m156 -4 c15 -12 23 -12 48 1 22
11 41 12 79 6 54 -10 68 -27 26 -32 l-28 -3 0 -100 c0 -81 -3 -99 -15 -99 -12
0 -15 18 -15 99 l0 99 -35 4 c-19 2 -39 0 -44 -5 -6 -6 -21 -5 -40 3 -42 17
-63 7 -59 -27 2 -22 10 -29 38 -34 57 -12 78 -64 42 -108 -26 -33 -122 -29
-122 4 0 11 10 13 43 9 33 -5 46 -2 57 11 20 24 1 49 -39 53 -58 6 -75 66 -33
115 18 20 71 23 97 4z m-2110 -77 c3 -87 9 -107 36 -115 41 -13 69 44 69 143
0 39 4 52 13 49 8 -3 12 -28 12 -80 -1 -78 -15 -114 -56 -140 -23 -15 -66 0
-85 28 -17 27 -31 151 -20 180 14 37 28 6 31 -65z m245 0 l45 -74 3 77 c2 60
6 77 18 77 12 0 14 -18 12 -107 -2 -73 -7 -108 -15 -110 -7 -3 -35 30 -63 74
l-50 78 0 -83 c0 -63 -3 -83 -12 -80 -9 3 -14 35 -16 103 -4 153 8 160 78 45z
m150 38 l0 -43 41 43 c23 23 45 42 48 42 24 0 16 -20 -26 -62 l-47 -48 53 -54
c65 -66 52 -86 -17 -26 l-47 42 -3 -42 c-2 -26 -7 -40 -15 -37 -8 2 -13 40
-15 115 -2 95 0 112 13 112 11 0 15 -11 15 -42z m441 -13 l31 -55 26 53 c46
89 65 66 78 -91 6 -70 5 -84 -7 -80 -9 3 -18 31 -25 79 l-10 74 -22 -35 c-12
-19 -22 -38 -22 -42 0 -23 -31 -2 -54 35 l-25 42 -1 -77 c0 -63 -3 -78 -15
-78 -12 0 -15 19 -15 108 0 144 11 156 61 67z m199 -17 c0 -82 15 -122 47
-126 31 -5 47 30 53 117 3 47 10 76 18 79 9 3 12 -17 12 -76 0 -66 -4 -85 -23
-113 -30 -45 -73 -51 -107 -14 -22 23 -25 37 -28 116 -3 76 -2 89 12 89 13 0
16 -13 16 -72z m-1100 -387 c35 -25 53 -83 40 -130 -15 -56 -42 -75 -103 -76
l-52 0 -3 105 c-2 91 0 106 15 118 21 15 68 8 103 -17z m108 -93 c-3 -60 -8
-111 -11 -114 -3 -4 -11 -3 -17 1 -9 6 -10 36 -5 114 8 113 10 125 27 115 7
-5 9 -44 6 -116z m153 103 c32 -26 19 -36 -25 -20 -28 10 -38 10 -51 -1 -27
-22 -15 -55 22 -58 33 -3 73 -41 73 -68 0 -7 -11 -25 -23 -40 -25 -29 -68 -35
-106 -14 -36 19 -23 29 32 27 52 -2 52 -2 52 28 0 27 -4 30 -39 36 -43 7 -56
21 -56 62 0 59 72 88 121 48z m175 -4 c19 -17 25 -29 20 -42 -6 -17 -8 -17
-29 4 -45 41 -85 22 -94 -46 -9 -69 63 -124 95 -73 7 11 17 20 23 20 19 0 4
-43 -22 -63 -35 -26 -75 -13 -107 34 -43 63 -13 169 52 182 11 2 24 5 28 6 4
0 19 -10 34 -22z m205 10 c27 -21 39 -54 39 -107 0 -46 -4 -56 -34 -86 -42
-42 -82 -45 -125 -8 -57 48 -51 156 12 194 36 22 84 25 108 7z m183 -8 c31
-25 35 -66 8 -100 -17 -20 -17 -25 -5 -50 8 -16 18 -31 24 -34 5 -4 9 -13 9
-21 0 -29 -33 -9 -54 31 -35 66 -65 53 -66 -28 0 -19 -4 -27 -12 -25 -9 3 -14
36 -16 106 -2 91 -1 103 18 122 26 26 60 26 94 -1z m178 -1 c26 -13 48 -61 48
-103 0 -74 -49 -120 -121 -113 l-34 3 -3 109 c-2 81 1 112 10 118 14 8 73 1
100 -14z m697 6 c33 -23 12 -41 -28 -24 -42 17 -63 7 -59 -27 2 -22 10 -29 38
-34 57 -12 78 -64 42 -108 -26 -33 -122 -29 -122 4 0 11 10 13 43 9 33 -5 46
-2 57 11 20 24 1 49 -39 53 -58 6 -75 66 -33 115 19 21 70 22 101 1z m75 -113
c-5 -88 -10 -111 -22 -111 -12 0 -14 17 -10 108 4 110 12 142 30 124 5 -5 6
-54 2 -121z m149 118 c25 -14 37 -28 37 -46 0 -18 -25 -16 -40 2 -22 26 -58
18 -76 -16 -40 -78 42 -176 89 -106 11 16 18 19 26 11 14 -13 -19 -59 -49 -69
-47 -15 -110 55 -110 123 0 38 38 94 70 103 14 4 26 7 28 8 2 1 13 -4 25 -10z
m250 -21 c21 -25 21 -37 3 -64 -10 -13 -11 -25 -5 -35 5 -8 9 -28 9 -46 0 -54
-62 -82 -102 -46 -15 13 -18 31 -18 102 0 47 4 91 8 97 18 29 77 24 105 -8z
m208 3 c24 -24 29 -38 29 -76 0 -52 -19 -96 -52 -119 -64 -45 -148 11 -148 99
0 106 103 164 171 96z m191 13 c15 -9 -2 -24 -28 -24 -24 0 -24 -1 -24 -94 0
-84 -9 -120 -26 -103 -3 3 -6 47 -7 98 l-2 94 -29 5 c-36 6 -45 27 -14 33 25
6 117 -1 130 -9z m-1357 -52 l31 -51 27 54 c15 31 34 55 42 55 8 0 15 -3 15
-7 0 -5 7 -53 15 -108 8 -57 10 -104 5 -109 -15 -15 -30 4 -31 42 0 20 -3 54
-7 75 l-7 38 -25 -46 c-13 -25 -29 -45 -35 -45 -6 0 -22 19 -36 43 l-24 42 -3
-77 c-2 -60 -6 -78 -17 -78 -12 0 -15 20 -15 108 0 143 11 154 65 64z m195 -7
c0 -84 21 -138 52 -133 31 4 48 43 48 113 0 64 11 92 29 81 14 -9 14 -70 0
-134 -12 -60 -45 -95 -84 -90 -45 5 -69 47 -73 128 -4 73 0 100 18 100 6 0 10
-27 10 -65z m-1560 -415 c27 -27 25 -54 -10 -116 l-31 -53 33 -3 c25 -2 34 -8
36 -25 3 -22 1 -23 -78 -23 -62 0 -80 3 -74 13 4 6 27 44 51 84 25 40 41 77
38 84 -5 7 -22 9 -46 5 -36 -6 -39 -5 -39 18 0 26 13 33 68 35 20 1 39 -6 52
-19z m140 11 c0 -5 -6 -24 -14 -42 -24 -58 -28 -79 -17 -79 6 0 11 8 11 19 0
10 11 26 25 35 l25 16 0 -35 c0 -24 5 -35 15 -35 9 0 15 -9 15 -25 0 -16 -6
-25 -15 -25 -10 0 -15 -10 -15 -30 0 -25 -4 -30 -25 -30 -21 0 -25 5 -25 30 0
29 -2 30 -45 30 -25 0 -45 3 -45 7 0 4 14 44 31 90 27 72 35 83 55 83 13 0 24
-4 24 -9z m331 -38 c-78 -197 -79 -199 -115 -191 -12 2 -8 20 24 95 l38 91
-49 4 -49 3 -38 -95 c-34 -84 -41 -95 -65 -98 l-27 -3 21 53 c12 29 33 83 48
121 l26 67 102 0 103 0 -19 -47z m242 -68 c26 -63 47 -117 47 -120 0 -9 -49
-5 -55 5 -3 6 -24 10 -45 10 -21 0 -42 -4 -45 -10 -9 -15 -58 -13 -52 3 3 6
24 60 48 120 23 59 45 107 49 107 4 0 28 -52 53 -115z m139 53 l57 -63 1 63
c0 59 1 62 25 62 l25 0 0 -120 c0 -66 -3 -120 -6 -120 -4 0 -33 28 -65 63
l-58 62 -1 -62 c0 -60 -1 -63 -25 -63 l-25 0 0 120 c0 66 3 120 8 120 4 0 33
-28 64 -62z m309 24 c24 -26 29 -41 29 -82 0 -41 -5 -56 -29 -82 -25 -29 -35
-32 -95 -36 l-66 -4 0 122 0 122 66 -4 c60 -4 70 -7 95 -36z m286 16 c24 -23
30 -57 13 -88 -7 -13 -7 -21 0 -25 18 -11 11 -63 -12 -85 -17 -15 -35 -20 -80
-20 l-58 0 0 120 0 120 57 0 c44 0 62 -5 80 -22z m173 -3 c0 -22 -4 -25 -35
-25 -31 0 -35 -3 -35 -25 0 -21 5 -25 30 -25 25 0 30 -4 30 -25 0 -21 -5 -25
-30 -25 -23 0 -30 -5 -30 -19 0 -16 8 -20 38 -23 30 -2 38 -7 40 -25 3 -22 0
-23 -62 -23 l-66 0 0 120 0 120 60 0 c57 0 60 -1 60 -25z m143 19 c9 -3 13
-13 10 -25 -4 -14 -14 -19 -39 -19 -40 0 -46 -23 -11 -41 42 -22 67 -52 67
-81 0 -39 -32 -68 -74 -68 -52 0 -66 9 -66 40 0 27 1 28 29 17 15 -5 35 -7 45
-4 22 9 20 34 -3 42 -40 12 -71 46 -71 76 0 52 58 84 113 63z m207 -19 c0 -21
-5 -25 -30 -25 l-30 0 0 -95 c0 -95 0 -95 -25 -95 -25 0 -25 0 -25 95 l0 95
-30 0 c-25 0 -30 4 -30 25 0 25 1 25 85 25 84 0 85 0 85 -25z m270 10 c52 -27
76 -106 49 -157 -8 -14 -8 -27 -1 -43 10 -22 9 -22 -66 -23 -87 -1 -124 14
-147 58 -57 110 55 222 165 165z m140 -61 c0 -86 11 -114 44 -114 31 0 36 16
36 111 0 78 0 79 25 79 25 0 25 -1 25 -85 0 -89 -15 -137 -45 -149 -38 -14
-82 -6 -106 20 -21 23 -24 36 -27 120 l-4 94 26 0 c26 0 26 -1 26 -76z m300
-35 c25 -61 47 -115 48 -120 2 -5 -10 -9 -27 -9 -17 0 -31 5 -31 10 0 6 -18
10 -39 10 -22 0 -43 -4 -46 -10 -7 -12 -55 -14 -55 -2 0 14 93 232 99 232 3 0
26 -50 51 -111z m120 17 l0 -95 38 -3 c30 -2 38 -7 40 -25 3 -22 0 -23 -62
-23 l-66 0 0 120 0 120 25 0 c25 0 25 0 25 -94z m150 -26 l0 -120 -25 0 -25 0
0 120 0 120 25 0 25 0 0 -120z m264 85 c11 -19 22 -35 27 -35 4 0 16 16 28 35
16 28 27 35 50 35 l30 0 -39 -62 c-34 -55 -40 -71 -40 -120 0 -55 -1 -58 -25
-58 -23 0 -25 3 -25 51 0 41 -7 62 -37 112 -25 39 -39 55 -41 44 -2 -11 -13
-17 -33 -17 l-29 0 0 -95 c0 -95 0 -95 -25 -95 -25 0 -25 0 -25 95 l0 95 -30
0 c-25 0 -30 4 -30 25 l0 25 113 0 112 0 19 -35z"/>
<path d="M6733 4286 c-11 -34 -10 -36 13 -36 27 0 30 14 10 48 -12 23 -12 23
-23 -12z"/>
<path d="M6860 4275 c0 -62 1 -65 23 -65 32 0 57 30 57 67 0 34 -26 63 -58 63
-20 0 -22 -5 -22 -65z"/>
<path d="M7200 4315 c0 -23 4 -26 28 -23 19 2 27 9 27 23 0 14 -8 21 -27 23
-24 3 -28 0 -28 -23z"/>
<path d="M7200 4240 c0 -29 2 -31 33 -28 27 2 32 7 32 28 0 21 -5 26 -32 28
-31 3 -33 1 -33 -28z"/>
<path d="M7561 4291 c-15 -36 -12 -44 17 -39 17 3 18 6 7 37 l-11 34 -13 -32z"/>
<path d="M7911 4291 c-15 -36 -12 -44 17 -39 17 3 18 6 7 37 l-11 34 -13 -32z"/>
<path d="M2368 3903 c7 -3 16 -2 19 1 4 3 -2 6 -13 5 -11 0 -14 -3 -6 -6z"/>
<path d="M2233 3273 c9 -2 25 -2 35 0 9 3 1 5 -18 5 -19 0 -27 -2 -17 -5z"/>
<path d="M7827 1854 c-13 -13 -8 -64 6 -64 24 0 49 26 45 46 -3 19 -38 31 -51
18z"/>
<path d="M7820 1735 c0 -39 21 -55 45 -35 21 17 19 47 -4 60 -33 17 -41 12
-41 -25z"/>
<path d="M5950 1348 c0 -90 7 -102 50 -93 24 5 35 16 46 40 27 65 -6 125 -68
125 l-28 0 0 -72z"/>
<path d="M6594 1418 c-26 -12 -44 -48 -44 -89 0 -35 39 -79 70 -79 38 0 70 44
70 95 0 70 -40 100 -96 73z"/>
<path d="M6792 1418 c-12 -12 -17 -60 -7 -70 3 -3 20 -2 38 1 23 5 33 13 35
29 6 42 -38 68 -66 40z"/>
<path d="M6960 1334 l0 -86 33 6 c43 8 67 39 67 86 0 44 -35 80 -76 80 -23 0
-24 -2 -24 -86z"/>
<path d="M8137 1393 c-7 -35 2 -44 31 -36 31 8 27 57 -4 61 -17 2 -23 -3 -27
-25z"/>
<path d="M8132 1293 c2 -31 7 -39 26 -41 33 -5 48 37 20 61 -34 29 -50 22 -46
-20z"/>
<path d="M8310 1412 c-15 -12 -24 -33 -27 -64 -5 -40 -2 -50 20 -72 51 -51
107 -21 114 61 5 42 2 54 -16 72 -26 26 -61 27 -91 3z"/>
<path d="M6542 850 c-7 -19 -6 -26 5 -28 21 -5 25 2 14 29 l-9 24 -10 -25z"/>
<path d="M6940 870 l0 -70 29 0 c55 0 82 79 41 120 -11 11 -31 20 -45 20 -24
0 -25 -2 -25 -70z"/>
<path d="M7250 915 c0 -23 4 -26 28 -23 19 2 27 9 27 23 0 14 -8 21 -27 23
-24 3 -28 0 -28 -23z"/>
<path d="M7250 820 c0 -17 5 -21 28 -18 16 2 27 9 27 18 0 9 -11 16 -27 18
-23 3 -28 -1 -28 -18z"/>
<path d="M8021 914 c-12 -15 -21 -34 -21 -44 0 -28 39 -70 66 -70 29 0 30 7 7
33 -18 20 -17 20 25 14 41 -5 42 -4 42 24 0 65 -80 93 -119 43z"/>
<path d="M8510 861 c0 -5 -3 -16 -6 -25 -4 -11 0 -16 14 -16 15 0 19 5 15 20
-6 22 -23 38 -23 21z"/>
</g>
</svg>
  
