<?xml version="1.0" encoding="UTF-8"?>
<svg version="1.1" xmlns="http://www.w3.org/2000/svg" width="1024" height="1024">
<path d="M0 0 C337.92 0 675.84 0 1024 0 C1024 337.92 1024 675.84 1024 1024 C686.08 1024 348.16 1024 0 1024 C0 686.08 0 348.16 0 0 Z " fill="#000000" transform="translate(0,0)"/>
<path d="M0 0 C1.27917801 -0.00029205 2.55835602 -0.00058411 3.876297 -0.00088501 C7.35292429 -0.00145433 10.82941106 0.01023113 14.30600595 0.02426291 C17.95081255 0.03684105 21.59562305 0.03794631 25.240448 0.04031372 C32.12855137 0.04650781 39.01659059 0.06289032 45.90466583 0.0830127 C53.75238144 0.1054365 61.60010026 0.11638137 69.44783998 0.12640357 C85.57838258 0.1472586 101.70886081 0.1823939 117.83935547 0.22705078 C117.8571564 1.98328006 117.86983998 3.73956169 117.88037109 5.49584961 C117.88798462 6.47387039 117.89559814 7.45189117 117.90344238 8.45954895 C117.82658695 11.77844095 117.24024401 14.72390387 116.33935547 17.91455078 C116.06091797 18.92904297 115.78248047 19.94353516 115.49560547 20.98876953 C115.27904297 21.72740234 115.06248047 22.46603516 114.83935547 23.22705078 C114.17935547 23.22705078 113.51935547 23.22705078 112.83935547 23.22705078 C112.90638672 24.09072266 112.97341797 24.95439453 113.04248047 25.84423828 C112.80128754 29.86102827 111.67069629 31.93270514 109.58935547 35.35205078 C108.98607422 36.36525391 108.38279297 37.37845703 107.76123047 38.42236328 C105.96690921 41.04090528 104.13118149 43.04890661 101.83935547 45.22705078 C100.74617026 46.48941942 99.6627617 47.76032151 98.58935547 49.03955078 C95.02912551 53.13804445 91.22295766 57.00233193 86.83935547 60.22705078 C86.17935547 60.22705078 85.51935547 60.22705078 84.83935547 60.22705078 C84.50935547 61.21705078 84.17935547 62.20705078 83.83935547 63.22705078 C69.43776255 73.71364757 53.18700406 73.77971783 36.21435547 73.72705078 C32.26335224 73.71500697 28.31367853 73.7286003 24.36279297 73.75830078 C23.46491058 73.7469812 22.5670282 73.73566162 21.64193726 73.72399902 C20.80651398 73.73080688 19.9710907 73.73761475 19.11035156 73.74462891 C18.3798056 73.74144653 17.64925964 73.73826416 16.89657593 73.73498535 C13.88640387 74.45498675 12.76891516 75.83522807 10.83935547 78.22705078 C10.23470586 81.16357164 10.23470586 81.16357164 10.32037354 84.47857666 C10.29950432 86.40525177 10.29950432 86.40525177 10.2782135 88.37084961 C10.28292647 89.79199346 10.28802042 91.21313608 10.29345703 92.63427734 C10.28472199 94.13239618 10.27423645 95.63050568 10.26213074 97.12860107 C10.23424119 101.19442431 10.23086669 105.25994357 10.23185062 109.32584858 C10.22872404 113.57535442 10.20311117 117.82472285 10.17987061 122.07415771 C10.13928748 130.12053044 10.11896449 138.16682207 10.10589671 146.21328139 C10.09003448 155.37409491 10.05162215 164.53477027 10.01130342 173.69550371 C9.92887286 192.53930908 9.8748005 211.38310142 9.83935547 230.22705078 C7.44217676 230.24738979 5.0451729 230.26222317 2.64794922 230.27392578 C1.63686096 230.28335205 1.63686096 230.28335205 0.60534668 230.29296875 C-8.19136436 230.32514203 -14.49636873 228.40756486 -22.16064453 224.22705078 C-22.16064453 223.23705078 -22.16064453 222.24705078 -22.16064453 221.22705078 C-23.18158203 221.07236328 -23.18158203 221.07236328 -24.22314453 220.91455078 C-30.59078585 219.42425175 -34.28184862 217.49113095 -38.16064453 212.22705078 C-39.15064453 211.89705078 -40.14064453 211.56705078 -41.16064453 211.22705078 C-41.16064453 209.90705078 -41.16064453 208.58705078 -41.16064453 207.22705078 C-41.74845703 206.97181641 -42.33626953 206.71658203 -42.94189453 206.45361328 C-49.48261468 202.83779264 -53.26188835 195.85638013 -56.16064453 189.22705078 C-56.66724609 188.17904297 -56.66724609 188.17904297 -57.18408203 187.10986328 C-61.90624362 177.13296548 -63.60945955 167.73388171 -63.56469727 156.73828125 C-63.57156052 155.54168884 -63.57842377 154.34509644 -63.585495 153.11224365 C-63.60054615 149.86434542 -63.60228954 146.61681188 -63.59655261 143.3688941 C-63.59343929 140.64525137 -63.59957635 137.92165938 -63.60559136 135.19802392 C-63.6195804 128.76966736 -63.61812064 122.34144389 -63.60668945 115.91308594 C-63.59519553 109.30376946 -63.60931777 102.69485817 -63.63608593 96.08559501 C-63.65829717 90.38588782 -63.66486869 84.68630735 -63.65900952 78.98655999 C-63.65565383 75.59317365 -63.65796243 72.20004734 -63.67526054 68.80669785 C-63.69017803 65.02317048 -63.67948737 61.24053128 -63.66235352 57.45703125 C-63.67202148 56.34717865 -63.68168945 55.23732605 -63.69165039 54.09384155 C-63.62636086 47.19033419 -62.3717841 42.3083987 -59.16064453 36.22705078 C-58.78939453 35.23705078 -58.41814453 34.24705078 -58.03564453 33.22705078 C-57.16064453 31.22705078 -57.16064453 31.22705078 -55.16064453 30.22705078 C-54.54786547 28.87370934 -53.99425948 27.49326265 -53.47314453 26.10205078 C-48.95727595 15.58724238 -38.29188416 8.77396879 -28.16064453 4.22705078 C-27.37689453 3.85580078 -26.59314453 3.48455078 -25.78564453 3.10205078 C-17.26700809 0.2625053 -8.91507811 -0.05391476 0 0 Z " fill="#FCFCFC" transform="translate(453.16064453125,468.77294921875)"/>
<path d="M0 0 C1.99248237 0.00084827 3.98496568 0.00036723 5.97744751 -0.00132751 C11.33591746 -0.00218109 16.69418205 0.01534026 22.05260468 0.03639436 C27.67128939 0.05526862 33.28997988 0.05692001 38.90869141 0.06047058 C49.52591049 0.06975967 60.14303586 0.09433063 70.76021385 0.12451905 C82.85707669 0.15816118 94.95394424 0.17457365 107.05084229 0.18960536 C131.91415496 0.22088326 156.7773847 0.27358218 181.640625 0.34057617 C181.66280555 2.21682351 181.67843062 4.09314885 181.69140625 5.96948242 C181.70554565 7.53678101 181.70554565 7.53678101 181.7199707 9.13574219 C181.54604364 16.16079021 180.61515802 22.4582673 176.640625 28.34057617 C176.1153235 29.68513026 175.61727211 31.04051428 175.140625 32.40307617 C174.03516075 35.464807 172.92990132 37.9517661 170.640625 40.34057617 C169.980625 40.34057617 169.320625 40.34057617 168.640625 40.34057617 C168.2384375 41.17588867 168.2384375 41.17588867 167.828125 42.02807617 C165.30244695 46.94650185 163.07157181 49.9646167 158.640625 53.34057617 C157.795 54.18620117 156.949375 55.03182617 156.078125 55.90307617 C154.0143532 57.96684797 152.07714202 59.74423743 149.640625 61.34057617 C148.980625 61.34057617 148.320625 61.34057617 147.640625 61.34057617 C147.39441406 61.95803711 147.14820313 62.57549805 146.89453125 63.21166992 C144.666823 66.99391602 140.60165378 67.84281216 136.640625 69.34057617 C135.8775 69.6319043 135.114375 69.92323242 134.328125 70.22338867 C125.72424144 73.30047203 117.31941076 73.48547752 108.26757812 73.45410156 C106.59796524 73.4543206 106.59796524 73.4543206 104.8946228 73.45454407 C101.23701997 73.45385067 97.57946887 73.44608513 93.921875 73.43823242 C91.377401 73.43636621 88.83292664 73.43494327 86.28845215 73.4339447 C80.28924344 73.43052431 74.29005675 73.42265293 68.29085684 73.41259521 C61.45646293 73.40138789 54.6220681 73.39591202 47.78766727 73.39089978 C33.73864303 73.38046897 19.68963503 73.36289842 5.640625 73.34057617 C4.17479849 77.30648098 3.38470483 80.64713003 3.33764648 84.87109375 C3.32100449 85.92851273 3.30436249 86.9859317 3.28721619 88.07539368 C3.27880203 89.20059921 3.27038788 90.32580475 3.26171875 91.48510742 C3.24472427 92.65063644 3.2277298 93.81616547 3.21022034 95.01701355 C3.15720269 98.72897985 3.11682068 102.4409351 3.078125 106.15307617 C3.03424336 109.88301525 2.98763174 113.61286656 2.93531799 117.34269714 C2.90327418 119.6618947 2.87641151 121.98117044 2.85508728 124.30049133 C2.84159744 125.34214951 2.8281076 126.38380768 2.81420898 127.45703125 C2.79994118 128.83886345 2.79994118 128.83886345 2.78538513 130.24861145 C2.640625 132.34057617 2.640625 132.34057617 1.640625 133.34057617 C-0.36937207 133.41771892 -2.37979885 133.48836735 -4.39086914 133.52880859 C-24.08495674 133.99784786 -43.17216914 137.10044799 -58.359375 150.34057617 C-59.019375 150.34057617 -59.679375 150.34057617 -60.359375 150.34057617 C-60.565625 151.06245117 -60.771875 151.78432617 -60.984375 152.52807617 C-62.82274565 156.28837978 -65.01363539 157.84906795 -68.359375 160.34057617 C-68.689375 160.34057617 -69.019375 160.34057617 -69.359375 160.34057617 C-69.42966338 146.05798822 -69.48225996 131.77542734 -69.51481152 117.49270153 C-69.53043807 110.859982 -69.55162151 104.22737903 -69.58569336 97.59472656 C-69.61839389 91.18861565 -69.63625065 84.78261656 -69.64400673 78.3764286 C-69.64953104 75.93771926 -69.66031851 73.49901572 -69.67656517 71.06035423 C-69.69848122 67.63303993 -69.70133596 64.20618218 -69.69995117 60.77880859 C-69.710737 59.78042465 -69.72152283 58.78204071 -69.7326355 57.75340271 C-69.69675475 49.49583726 -68.6664707 40.03213162 -63.359375 33.34057617 C-62.699375 33.34057617 -62.039375 33.34057617 -61.359375 33.34057617 C-61.359375 32.06182617 -61.359375 30.78307617 -61.359375 29.46557617 C-60.60096181 22.94732228 -56.98373869 18.78114163 -52.359375 14.34057617 C-49.63836734 12.35200153 -46.89204824 10.59239086 -43.97265625 8.91088867 C-41.31171009 7.42332333 -41.31171009 7.42332333 -39.13604736 5.35047626 C-29.06676594 -1.93819414 -11.86512732 -0.07163946 0 0 Z " fill="#009EE2" transform="translate(460.359375,324.659423828125)"/>
<path d="M0 0 C1.99248237 0.00084827 3.98496568 0.00036723 5.97744751 -0.00132751 C11.33591746 -0.00218109 16.69418205 0.01534026 22.05260468 0.03639436 C27.67128939 0.05526862 33.28997988 0.05692001 38.90869141 0.06047058 C49.52591049 0.06975967 60.14303586 0.09433063 70.76021385 0.12451905 C82.85707669 0.15816118 94.95394424 0.17457365 107.05084229 0.18960536 C131.91415496 0.22088326 156.7773847 0.27358218 181.640625 0.34057617 C181.64961608 2.26748818 181.65604177 4.19441229 181.66137695 6.12133789 C181.66522903 7.19439178 181.66908112 8.26744568 181.67304993 9.37301636 C181.63914924 12.47563952 181.38845957 15.41334723 180.828125 18.46557617 C180.60189453 19.79975586 180.60189453 19.79975586 180.37109375 21.16088867 C179.640625 23.34057617 179.640625 23.34057617 176.640625 25.34057617 C176.785 24.42276367 176.929375 23.50495117 177.078125 22.55932617 C177.26375 21.33213867 177.449375 20.10495117 177.640625 18.84057617 C177.82625 17.63401367 178.011875 16.42745117 178.203125 15.18432617 C178.52007013 12.39973682 178.68817725 9.87901091 178.66796875 7.1003418 C178.65894531 5.85961914 178.64992188 4.61889648 178.640625 3.34057617 C154.79595433 3.31716077 130.9512854 3.29955468 107.10660553 3.288764 C96.0337943 3.28361935 84.96099023 3.27661173 73.88818359 3.26513672 C64.23116822 3.25513374 54.57415804 3.24870944 44.91713762 3.24648768 C39.80926908 3.24519007 34.70141539 3.24216482 29.59355164 3.23484612 C24.77390061 3.22799711 19.95427038 3.22597705 15.13461494 3.22746849 C13.37719675 3.22719612 11.61977777 3.22524416 9.86236382 3.2213707 C-0.88171462 3.19887597 -11.66313904 3.20270112 -22.359375 4.34057617 C-22.689375 4.67057617 -23.019375 5.00057617 -23.359375 5.34057617 C-24.514375 5.48495117 -25.669375 5.62932617 -26.859375 5.77807617 C-28.591875 6.05651367 -28.591875 6.05651367 -30.359375 6.34057617 C-30.689375 7.00057617 -31.019375 7.66057617 -31.359375 8.34057617 C-32.349375 8.67057617 -33.339375 9.00057617 -34.359375 9.34057617 C-35.019375 10.00057617 -35.679375 10.66057617 -36.359375 11.34057617 C-37.101875 11.62932617 -37.844375 11.91807617 -38.609375 12.21557617 C-46.66794179 15.51226259 -53.0363722 21.94930687 -56.50390625 29.99682617 C-56.78621094 30.77026367 -57.06851562 31.54370117 -57.359375 32.34057617 C-59.13846339 35.51199461 -60.99759789 38.56805521 -63.359375 41.34057617 C-64.019375 41.34057617 -64.679375 41.34057617 -65.359375 41.34057617 C-65.689375 77.64057617 -66.019375 113.94057617 -66.359375 151.34057617 C-64.709375 149.69057617 -63.059375 148.04057617 -61.359375 146.34057617 C-59.70120716 145.65304316 -58.03478164 144.98496334 -56.359375 144.34057617 C-55.00504825 143.02857213 -53.67204018 141.69426214 -52.359375 140.34057617 C-48.71966667 137.74078451 -44.97792083 136.45849334 -40.73828125 135.18432617 C-38.23992456 134.3781332 -38.23992456 134.3781332 -35.68481445 132.80615234 C-31.77879051 131.08470299 -29.02894957 130.99654128 -24.7734375 131.04760742 C-24.07165375 131.05185226 -23.36987 131.05609711 -22.64682007 131.06047058 C-20.4255994 131.07714018 -18.20531712 131.11476745 -15.984375 131.15307617 C-14.47006527 131.16813829 -12.95574119 131.18182402 -11.44140625 131.1940918 C-7.74709568 131.22700434 -4.05332707 131.27870359 -0.359375 131.34057617 C-0.36381622 130.70466049 -0.36825745 130.06874481 -0.37283325 129.41355896 C-0.41717484 122.77849582 -0.4472864 116.14347498 -0.46923828 109.50830078 C-0.47927864 107.03399953 -0.49291363 104.55971008 -0.51025391 102.08544922 C-0.53458828 98.5233264 -0.54587799 94.96136087 -0.5546875 91.39916992 C-0.56501007 90.2978624 -0.57533264 89.19655487 -0.58596802 88.06187439 C-0.58753606 77.26085446 -0.58753606 77.26085446 1.640625 72.34057617 C6.38408718 69.45864689 11.89009028 70.07823131 17.24804688 70.11694336 C18.85177406 70.11633156 18.85177406 70.11633156 20.48789978 70.1157074 C22.81011776 70.11550992 25.13233906 70.11954748 27.45454407 70.12731171 C31.14896772 70.13756101 34.84305506 70.13213439 38.53747559 70.12188721 C49.0424577 70.09397543 59.54725563 70.08117542 70.05224609 70.1105957 C76.48382548 70.12747716 82.91480804 70.11476419 89.34632874 70.08414459 C91.77954365 70.07809966 94.21281283 70.08274894 96.64598083 70.09902191 C111.41386936 70.19354855 127.07880388 70.08061712 140.640625 63.34057617 C142.42172163 61.26002222 142.42172163 61.26002222 143.640625 59.34057617 C144.960625 59.34057617 146.280625 59.34057617 147.640625 59.34057617 C147.970625 58.02057617 148.300625 56.70057617 148.640625 55.34057617 C151.610625 54.84557617 151.610625 54.84557617 154.640625 54.34057617 C154.640625 53.35057617 154.640625 52.36057617 154.640625 51.34057617 C156.1015625 49.95385742 156.1015625 49.95385742 158.015625 48.65307617 C158.64210938 48.21608398 159.26859375 47.7790918 159.9140625 47.32885742 C161.640625 46.34057617 161.640625 46.34057617 163.640625 46.34057617 C163.640625 45.35057617 163.640625 44.36057617 163.640625 43.34057617 C164.300625 43.34057617 164.960625 43.34057617 165.640625 43.34057617 C165.640625 42.68057617 165.640625 42.02057617 165.640625 41.34057617 C166.300625 41.34057617 166.960625 41.34057617 167.640625 41.34057617 C167.640625 40.35057617 167.640625 39.36057617 167.640625 38.34057617 C168.300625 38.01057617 168.960625 37.68057617 169.640625 37.34057617 C169.640625 36.35057617 169.640625 35.36057617 169.640625 34.34057617 C170.300625 34.34057617 170.960625 34.34057617 171.640625 34.34057617 C171.970625 32.69057617 172.300625 31.04057617 172.640625 29.34057617 C173.300625 29.34057617 173.960625 29.34057617 174.640625 29.34057617 C174.640625 28.35057617 174.640625 27.36057617 174.640625 26.34057617 C175.300625 26.34057617 175.960625 26.34057617 176.640625 26.34057617 C175.3430067 31.63918423 173.49046798 35.68583263 170.640625 40.34057617 C169.980625 40.34057617 169.320625 40.34057617 168.640625 40.34057617 C168.2384375 41.17588867 168.2384375 41.17588867 167.828125 42.02807617 C165.30244695 46.94650185 163.07157181 49.9646167 158.640625 53.34057617 C157.795 54.18620117 156.949375 55.03182617 156.078125 55.90307617 C154.0143532 57.96684797 152.07714202 59.74423743 149.640625 61.34057617 C148.980625 61.34057617 148.320625 61.34057617 147.640625 61.34057617 C147.39441406 61.95803711 147.14820313 62.57549805 146.89453125 63.21166992 C144.666823 66.99391602 140.60165378 67.84281216 136.640625 69.34057617 C135.8775 69.6319043 135.114375 69.92323242 134.328125 70.22338867 C125.72424144 73.30047203 117.31941076 73.48547752 108.26757812 73.45410156 C106.59796524 73.4543206 106.59796524 73.4543206 104.8946228 73.45454407 C101.23701997 73.45385067 97.57946887 73.44608513 93.921875 73.43823242 C91.377401 73.43636621 88.83292664 73.43494327 86.28845215 73.4339447 C80.28924344 73.43052431 74.29005675 73.42265293 68.29085684 73.41259521 C61.45646293 73.40138789 54.6220681 73.39591202 47.78766727 73.39089978 C33.73864303 73.38046897 19.68963503 73.36289842 5.640625 73.34057617 C4.17479849 77.30648098 3.38470483 80.64713003 3.33764648 84.87109375 C3.32100449 85.92851273 3.30436249 86.9859317 3.28721619 88.07539368 C3.27880203 89.20059921 3.27038788 90.32580475 3.26171875 91.48510742 C3.24472427 92.65063644 3.2277298 93.81616547 3.21022034 95.01701355 C3.15720269 98.72897985 3.11682068 102.4409351 3.078125 106.15307617 C3.03424336 109.88301525 2.98763174 113.61286656 2.93531799 117.34269714 C2.90327418 119.6618947 2.87641151 121.98117044 2.85508728 124.30049133 C2.84159744 125.34214951 2.8281076 126.38380768 2.81420898 127.45703125 C2.79994118 128.83886345 2.79994118 128.83886345 2.78538513 130.24861145 C2.640625 132.34057617 2.640625 132.34057617 1.640625 133.34057617 C-0.36937207 133.41771892 -2.37979885 133.48836735 -4.39086914 133.52880859 C-24.08495674 133.99784786 -43.17216914 137.10044799 -58.359375 150.34057617 C-59.019375 150.34057617 -59.679375 150.34057617 -60.359375 150.34057617 C-60.565625 151.06245117 -60.771875 151.78432617 -60.984375 152.52807617 C-62.82274565 156.28837978 -65.01363539 157.84906795 -68.359375 160.34057617 C-68.689375 160.34057617 -69.019375 160.34057617 -69.359375 160.34057617 C-69.42966338 146.05798822 -69.48225996 131.77542734 -69.51481152 117.49270153 C-69.53043807 110.859982 -69.55162151 104.22737903 -69.58569336 97.59472656 C-69.61839389 91.18861565 -69.63625065 84.78261656 -69.64400673 78.3764286 C-69.64953104 75.93771926 -69.66031851 73.49901572 -69.67656517 71.06035423 C-69.69848122 67.63303993 -69.70133596 64.20618218 -69.69995117 60.77880859 C-69.710737 59.78042465 -69.72152283 58.78204071 -69.7326355 57.75340271 C-69.69675475 49.49583726 -68.6664707 40.03213162 -63.359375 33.34057617 C-62.699375 33.34057617 -62.039375 33.34057617 -61.359375 33.34057617 C-61.359375 32.06182617 -61.359375 30.78307617 -61.359375 29.46557617 C-60.60096181 22.94732228 -56.98373869 18.78114163 -52.359375 14.34057617 C-49.63836734 12.35200153 -46.89204824 10.59239086 -43.97265625 8.91088867 C-41.31171009 7.42332333 -41.31171009 7.42332333 -39.13604736 5.35047626 C-29.06676594 -1.93819414 -11.86512732 -0.07163946 0 0 Z " fill="#189BD0" transform="translate(460.359375,324.659423828125)"/>
<path d="M0 0 C0.66 0 1.32 0 2 0 C1.67 1.98 1.34 3.96 1 6 C0.34 6 -0.32 6 -1 6 C-1.19335938 6.65226562 -1.38671875 7.30453125 -1.5859375 7.9765625 C-1.84632813 8.85054688 -2.10671875 9.72453125 -2.375 10.625 C-2.63023437 11.48351562 -2.88546875 12.34203125 -3.1484375 13.2265625 C-4 16 -4 16 -5.03903198 18.49966431 C-6.3573089 23.30150128 -6.26244433 27.82207649 -6.22705078 32.77880859 C-6.22734283 33.85257751 -6.22763489 34.92634644 -6.22793579 36.03265381 C-6.22654576 39.57133142 -6.21099967 43.1097968 -6.1953125 46.6484375 C-6.19158122 49.1060881 -6.18873479 51.5637402 -6.18673706 54.02139282 C-6.17910972 60.48224004 -6.15946883 66.94299698 -6.1373291 73.40380859 C-6.11685138 79.99966206 -6.10773122 86.59553014 -6.09765625 93.19140625 C-6.07622219 106.12764262 -6.04248277 119.0638165 -6 132 C-2.3360631 129.26752509 -2.3360631 129.26752509 0.3125 125.625 C6.5501491 115.92199029 20.27633503 110.59544953 31.14355469 108.13916016 C31.96243164 107.9694873 32.78130859 107.79981445 33.625 107.625 C34.3562207 107.46950684 35.08744141 107.31401367 35.84082031 107.15380859 C45.10472164 105.45016974 54.60833286 105.37093355 64 105 C64.00879936 104.02400345 64.00879936 104.02400345 64.01777649 103.02828979 C64.08178355 96.24709094 64.16622263 89.46636344 64.26245117 82.68554688 C64.29567514 80.15598775 64.32371489 77.62635495 64.34643555 75.09667969 C64.38002704 71.45736333 64.43234754 67.81872066 64.48828125 64.1796875 C64.49467117 63.05134491 64.5010611 61.92300232 64.50764465 60.76046753 C64.52743881 59.69982086 64.54723297 58.63917419 64.56762695 57.54638672 C64.57873001 56.61817108 64.58983307 55.68995544 64.60127258 54.73361206 C65 52 65 52 68 46 C105.62 46 143.24 46 182 46 C182 46.33 182 46.66 182 47 C181.44008677 47.00331015 180.88017353 47.00662029 180.30329323 47.01003075 C166.69147856 47.09118298 153.07977746 47.18337603 139.46811867 47.28752708 C132.88566842 47.3375576 126.30323476 47.38388691 119.72070312 47.421875 C113.37291559 47.45864259 107.02526456 47.50497899 100.67759323 47.55806351 C98.25102499 47.57665292 95.82442743 47.59174389 93.3978157 47.60334396 C90.00937041 47.62012877 86.62124092 47.64914473 83.23291016 47.68115234 C82.22087021 47.68331253 81.20883026 47.68547272 80.16612244 47.68769836 C78.78628426 47.70444359 78.78628426 47.70444359 77.37857056 47.7215271 C76.17563071 47.72982324 76.17563071 47.72982324 74.94838905 47.73828697 C72.76447353 47.83107469 72.76447353 47.83107469 71 50 C70.835 50.680625 70.67 51.36125 70.5 52.0625 C70.335 52.701875 70.17 53.34125 70 54 C69.01 54.495 69.01 54.495 68 55 C67.99635437 55.60499329 67.99270874 56.20998657 67.98895264 56.83331299 C67.94715638 63.12771072 67.87783118 69.42137731 67.79248047 75.71533203 C67.76424712 78.06454152 67.74304442 80.41384641 67.72900391 82.76318359 C67.70760776 86.13949518 67.66097263 89.51465667 67.609375 92.890625 C67.60814636 93.94179504 67.60691772 94.99296509 67.60565186 96.07598877 C67.4604171 103.29930373 67.4604171 103.29930373 65.25317383 106.65844727 C62.72967674 108.16095203 61.26148323 108.5208191 58.33984375 108.57421875 C57.46392578 108.60193359 56.58800781 108.62964844 55.68554688 108.65820312 C54.77869141 108.66787109 53.87183594 108.67753906 52.9375 108.6875 C51.13403062 108.72961924 49.33063471 108.77505017 47.52734375 108.82421875 C46.73062256 108.83541748 45.93390137 108.84661621 45.11303711 108.8581543 C42.80898967 108.92368307 42.80898967 108.92368307 40 110 C42.56623957 111.28311978 44.3775473 111.12298145 47.2517395 111.12025452 C48.921866 111.12231651 48.921866 111.12231651 50.62573242 111.12442017 C51.85283936 111.12082489 53.07994629 111.11722961 54.34423828 111.11352539 C55.63200165 111.11367142 56.91976501 111.11381744 58.24655151 111.1139679 C61.78352423 111.11425549 65.32046322 111.10836483 68.85742807 111.10139394 C72.55166867 111.09515415 76.24590998 111.0945561 79.94015503 111.09336853 C86.93829104 111.09025706 93.93641148 111.08204615 100.93454063 111.07201904 C108.90057598 111.06085219 116.86661206 111.05534601 124.83265328 111.05032361 C141.22177824 111.03986339 157.61088652 111.02206671 174 111 C174 117.93 174 124.86 174 132 C173.34 132 172.68 132 172 132 C172 133.093125 172 134.18625 172 135.3125 C172 137.54166667 172 139.77083333 172 142 C172.20625 142.598125 172.4125 143.19625 172.625 143.8125 C173.15701 146.91589169 172.11591794 149.11174181 171 152 C169 151 169 151 168 148 C167.01 148.99 166.02 149.98 165 151 C165.309375 150.29875 165.61875 149.5975 165.9375 148.875 C167.03302678 145.91063343 167.56422992 143.12301892 168 140 C168.66 140 169.32 140 170 140 C170.06058594 139.30132812 170.12117187 138.60265625 170.18359375 137.8828125 C170.26738281 136.97273437 170.35117187 136.06265625 170.4375 135.125 C170.55931641 133.76761719 170.55931641 133.76761719 170.68359375 132.3828125 C171 130 171 130 172 128 C172.2275015 126.12943209 172.40962811 124.25314042 172.5625 122.375 C172.64628906 121.37210937 172.73007812 120.36921875 172.81640625 119.3359375 C172.87699219 118.56507813 172.93757812 117.79421875 173 117 C156.09234731 117.08404421 139.18479849 117.17923024 122.27728462 117.28752708 C114.42608699 117.33755877 106.5748993 117.38400242 98.72363281 117.421875 C91.87710014 117.45491023 85.03064688 117.49480433 78.18420208 117.54279006 C74.56212736 117.56794095 70.94010454 117.58975527 67.31796646 117.60334396 C63.26541058 117.61867633 59.21310449 117.64932762 55.16064453 117.68115234 C53.37715355 117.68439262 53.37715355 117.68439262 51.55763245 117.68769836 C37.07932724 117.83252649 23.69166637 120.71370487 13 131 C12.33226562 131.52335938 11.66453125 132.04671875 10.9765625 132.5859375 C5.47294138 136.94382337 2.69675286 141.55631648 0 148 C-0.99 147.67 -1.98 147.34 -3 147 C-3.33 145.35 -3.66 143.7 -4 142 C-2.68 142.33 -1.36 142.66 0 143 C0.33 142.01 0.66 141.02 1 140 C0.34 139.67 -0.32 139.34 -1 139 C-0.34 138.01 0.32 137.02 1 136 C1.66 136 2.32 136 3 136 C3.0825 135.4225 3.165 134.845 3.25 134.25 C4.20143789 131.39568633 5.89608193 130.10391807 8 128 C8 127.01 8 126.02 8 125 C4.00729046 127.32825495 0.50110624 129.48750498 -2.75 132.8125 C-5 135 -5 135 -9 135 C-9.04669788 120.1880742 -9.08197798 105.37615813 -9.10362434 90.5641737 C-9.11394178 83.6868818 -9.128011 76.80963561 -9.15087891 69.93237305 C-9.1729241 63.29937655 -9.1845585 56.66641518 -9.18975449 50.03338051 C-9.19345888 47.49875451 -9.2006923 44.96413121 -9.21146011 42.42952538 C-9.22591113 38.88809901 -9.22798061 35.34687088 -9.22705078 31.80541992 C-9.23424133 30.75022156 -9.24143188 29.69502319 -9.24884033 28.60784912 C-9.246091 27.64451157 -9.24334167 26.68117401 -9.24050903 25.68864441 C-9.24235262 24.85073459 -9.24419621 24.01282476 -9.24609566 23.14952374 C-9 21 -9 21 -7 18 C-6.7834375 16.329375 -6.7834375 16.329375 -6.5625 14.625 C-5.98207371 10.884475 -5.06775371 9.10163057 -3 6 C-1.9849911 4.00757511 -0.98126556 2.00925805 0 0 Z " fill="#001429" transform="translate(398,352)"/>
<path d="M0 0 C3.94024748 0.00256626 7.88049286 0.00017441 11.82074046 -0.00138617 C18.43130488 -0.00319536 25.04185805 -0.00083436 31.65242076 0.00395441 C39.25223641 0.00939686 46.85202522 0.00762941 54.45184022 0.00212801 C61.02478014 -0.00243626 67.59771206 -0.00303764 74.17065305 -0.00043333 C78.07548465 0.00111104 81.98030371 0.00137448 85.88513446 -0.00196981 C89.55839401 -0.0048972 93.23161957 -0.00278527 96.90487552 0.00292444 C98.86495362 0.00483814 100.82503467 0.00194019 102.78511119 -0.00120306 C110.63958602 0.01711542 118.41853093 0.36237789 126.25012946 0.91058779 C130.42474993 1.17934816 134.54297772 1.23416873 138.72541881 1.1968255 C139.41635631 1.19231379 140.10729381 1.18780207 140.81916881 1.18315363 C142.45462703 1.17179628 144.09003827 1.15389788 145.72541881 1.1343255 C150.70349755 12.78426913 147.94594657 22.74282241 143.72541881 34.1343255 C142.53547256 36.95371033 141.23783485 39.4623905 139.72541881 42.1343255 C139.20979381 43.2274505 138.69416881 44.3205755 138.16291881 45.4468255 C136.84802071 47.90511325 135.65392778 49.20581653 133.72541881 51.1343255 C133.39541881 51.9799505 133.06541881 52.8255755 132.72541881 53.6968255 C131.72541881 56.1343255 131.72541881 56.1343255 128.72541881 58.1343255 C128.51916881 58.9180755 128.31291881 59.7018255 128.10041881 60.5093255 C126.1659602 64.20238284 123.59706149 64.68066114 119.83088756 66.1655755 C117.25028998 67.35293766 116.34703059 68.84932708 114.72541881 71.1343255 C111.43459555 72.77973713 108.46297744 73.99002055 104.85041881 74.6968255 C103.79854381 74.913388 103.79854381 74.913388 102.72541881 75.1343255 C102.39541881 75.7943255 102.06541881 76.4543255 101.72541881 77.1343255 C99.73401321 77.51565849 97.73262804 77.84758133 95.72541881 78.1343255 C94.73541881 78.6293255 94.73541881 78.6293255 93.72541881 79.1343255 C92.01839145 79.20428564 90.30873878 79.21872704 88.60041881 79.1968255 C87.23530162 79.18329035 87.23530162 79.18329035 85.84260631 79.16948175 C84.79459849 79.15207941 84.79459849 79.15207941 83.72541881 79.1343255 C83.72541881 78.8043255 83.72541881 78.4743255 83.72541881 78.1343255 C84.28487193 78.04795832 84.84432506 77.96159113 85.42073131 77.87260675 C95.30400838 76.14064984 105.95909304 73.76570999 113.28010631 66.53666925 C114.72541881 65.1343255 114.72541881 65.1343255 117.85041881 63.1343255 C120.30498963 61.42679797 121.6579464 60.15882314 123.47541881 57.8843255 C124.58916881 56.5230755 124.58916881 56.5230755 125.72541881 55.1343255 C126.38541881 55.1343255 127.04541881 55.1343255 127.72541881 55.1343255 C127.91104381 54.4743255 128.09666881 53.8143255 128.28791881 53.1343255 C129.66299167 50.26460822 130.87151702 48.8277091 133.03791881 46.5718255 C136.89943988 42.36365431 138.77624563 37.87733666 140.78010631 32.57573175 C141.72541881 30.1343255 141.72541881 30.1343255 142.72541881 29.1343255 C143.10801078 27.5411886 143.43029833 25.93345999 143.72541881 24.3218255 C143.89041881 23.44913019 144.05541881 22.57643488 144.22541881 21.67729425 C144.68530248 18.41858731 144.99065939 15.1921487 145.25666881 11.91288996 C145.34496959 10.83110971 145.43327037 9.74932947 145.52424693 8.63476801 C145.59063365 7.80962198 145.65702037 6.98447596 145.72541881 6.1343255 C119.52602821 6.24158721 93.3266663 6.35435271 67.12732768 6.47366476 C54.96244324 6.52893554 42.79755587 6.5824074 30.63264537 6.63163996 C20.02934027 6.67455711 9.42605622 6.72085401 -1.17721629 6.77120405 C-6.79119216 6.79774435 -12.40516402 6.82259579 -18.01916432 6.84339952 C-23.30501082 6.86304063 -28.59081747 6.88720643 -33.87662816 6.91481638 C-35.81477944 6.92414733 -37.75293944 6.93183666 -39.69110417 6.93774462 C-42.34206077 6.94607338 -44.99292238 6.96036829 -47.64384389 6.97610712 C-48.40651271 6.97708523 -49.16918154 6.97806333 -49.95496154 6.97907108 C-54.80452427 7.01596603 -59.4716444 7.45410006 -64.27458119 8.1343255 C-63.28458119 7.8043255 -62.29458119 7.4743255 -61.27458119 7.1343255 C-61.27458119 6.4743255 -61.27458119 5.8143255 -61.27458119 5.1343255 C-60.34774526 5.01315363 -59.42090932 4.89198175 -58.46598744 4.767138 C-57.26844838 4.59955988 -56.07090932 4.43198175 -54.83708119 4.2593255 C-53.64212026 4.09690363 -52.44715932 3.93448175 -51.21598744 3.767138 C-50.24532338 3.55830988 -49.27465932 3.34948175 -48.27458119 3.1343255 C-47.94458119 2.4743255 -47.61458119 1.8143255 -47.27458119 1.1343255 C-31.54001277 -0.17496767 -15.77495435 -0.01352207 0 0 Z " fill="#000817" transform="translate(496.27458119392395,318.865674495697)"/>
<path d="M0 0 C0 0.66 0 1.32 0 2 C-1.32 2.33 -2.64 2.66 -4 3 C-2.68 3.33 -1.36 3.66 0 4 C0 4.66 0 5.32 0 6 C-10.56384053 9.55467623 -20.76320543 9.35094502 -31.75 9.1875 C-33.52603026 9.17241866 -35.30207297 9.15873639 -37.078125 9.14648438 C-41.38572989 9.11376858 -45.6927238 9.06217936 -50 9 C-50.33 7.68 -50.66 6.36 -51 5 C-51 55.16 -51 105.32 -51 157 C-51.99 157 -52.98 157 -54 157 C-54.33 158.32 -54.66 159.64 -55 161 C-60.94 161 -66.88 161 -73 161 C-73.33 160.34 -73.66 159.68 -74 159 C-65.585 159.495 -65.585 159.495 -57 160 C-57.01665459 157.16025322 -57.01665459 157.16025322 -57.03364563 154.26313782 C-57.1348948 136.44349485 -57.21020512 118.62390995 -57.25906086 100.80404377 C-57.28484703 91.64211287 -57.32000537 82.48039664 -57.37719727 73.31860352 C-57.42701969 65.33355145 -57.45928801 57.34865484 -57.47044247 49.36345166 C-57.47696326 45.13491554 -57.49229709 40.90682418 -57.52865028 36.67843056 C-57.56259172 32.69830734 -57.57305692 28.71881201 -57.56553841 24.73855782 C-57.56691381 23.27803383 -57.57685805 21.81748883 -57.59602737 20.35709 C-57.62092848 18.36214143 -57.61193717 16.36685586 -57.60127258 14.3717804 C-57.60588155 13.25548909 -57.61049051 12.13919779 -57.61523914 10.98907948 C-56.80134497 7.03485387 -55.07134767 5.52716423 -52 3 C-49.76869202 2.3742218 -49.76869202 2.3742218 -47.48852539 2.37231445 C-46.62735611 2.35912674 -45.76618683 2.34593903 -44.87892151 2.33235168 C-43.96110397 2.34255844 -43.04328644 2.3527652 -42.09765625 2.36328125 C-40.66467445 2.34771431 -40.66467445 2.34771431 -39.20274353 2.33183289 C-36.15562876 2.30217708 -33.1097328 2.30552032 -30.0625 2.3125 C-27.0191803 2.30359084 -23.97618573 2.28756588 -20.93296814 2.2610321 C-19.04204231 2.24618636 -17.15098987 2.24227254 -15.26002502 2.25080872 C-9.93058277 2.22780178 -5.04583198 0 0 0 Z " fill="#101010" transform="translate(520,539)"/>
<path d="M0 0 C0.66 0 1.32 0 2 0 C0.7023817 5.29860806 -1.15015702 9.34525646 -4 14 C-4.66 14 -5.32 14 -6 14 C-6.268125 14.556875 -6.53625 15.11375 -6.8125 15.6875 C-9.33817805 20.60592568 -11.56905319 23.62404052 -16 27 C-16.845625 27.845625 -17.69125 28.69125 -18.5625 29.5625 C-20.6262718 31.6262718 -22.56348298 33.40366126 -25 35 C-25.66 35 -26.32 35 -27 35 C-27.24621094 35.61746094 -27.49242187 36.23492187 -27.74609375 36.87109375 C-29.973802 40.65333985 -34.03897122 41.50223599 -38 43 C-39.1446875 43.43699219 -39.1446875 43.43699219 -40.3125 43.8828125 C-48.91638356 46.95989586 -57.32121424 47.14490135 -66.37304688 47.11352539 C-68.04265976 47.11374443 -68.04265976 47.11374443 -69.7460022 47.1139679 C-73.40360503 47.11327449 -77.06115613 47.10550896 -80.71875 47.09765625 C-83.263224 47.09579004 -85.80769836 47.09436709 -88.35217285 47.09336853 C-94.35138156 47.08994813 -100.35056825 47.08207676 -106.34976816 47.07201904 C-113.18416207 47.06081171 -120.0185569 47.05533585 -126.85295773 47.05032361 C-140.90198197 47.0398928 -154.95098997 47.02232225 -169 47 C-170.46582651 50.96590481 -171.25592017 54.30655386 -171.30297852 58.53051758 C-171.31962051 59.58793655 -171.33626251 60.64535553 -171.35340881 61.7348175 C-171.36182297 62.86002304 -171.37023712 63.98522858 -171.37890625 65.14453125 C-171.39590073 66.31006027 -171.4128952 67.47558929 -171.43040466 68.67643738 C-171.48342231 72.38840368 -171.52380432 76.10035892 -171.5625 79.8125 C-171.60638164 83.54243908 -171.65299326 87.27229039 -171.70530701 91.00212097 C-171.73735082 93.32131853 -171.76421349 95.64059427 -171.78553772 97.95991516 C-171.79902756 99.00157333 -171.8125174 100.04323151 -171.82641602 101.11645508 C-171.84068382 102.49828728 -171.84068382 102.49828728 -171.85523987 103.90803528 C-172 106 -172 106 -173 107 C-174.33493441 107.12077978 -175.67560535 107.17955328 -177.015625 107.2109375 C-177.84876221 107.23744385 -178.68189941 107.2639502 -179.5402832 107.29125977 C-180.43448975 107.31889404 -181.32869629 107.34652832 -182.25 107.375 C-189.61013692 107.65694996 -196.21892876 108.47580454 -203.34375 110.3671875 C-206.69318654 111.1651415 -209.58034998 111.23858023 -213 111 C-204.07362895 106.07658191 -193.93083351 105.79152247 -183.99609375 105.9140625 C-183.03086792 105.92026611 -182.06564209 105.92646973 -181.07116699 105.93286133 C-178.71398504 105.94891147 -176.3570577 105.97142379 -174 106 C-174.00666183 105.28003342 -174.01332367 104.56006683 -174.02018738 103.81828308 C-174.08028457 97.03512593 -174.1259673 90.25200854 -174.15543652 83.46865368 C-174.17109635 79.98118424 -174.1923398 76.49393468 -174.22631836 73.0065918 C-174.2651328 68.99786257 -174.2797065 64.98936452 -174.29296875 60.98046875 C-174.30845261 59.72727341 -174.32393646 58.47407806 -174.33988953 57.1829071 C-174.34011612 56.02193008 -174.34034271 54.86095306 -174.34057617 53.66479492 C-174.34723801 52.64109299 -174.35389984 51.61739105 -174.36076355 50.56266785 C-174 48 -174 48 -172.66621399 46.20845032 C-169.69271116 44.05186631 -167.03512325 43.87624185 -163.4906311 43.88215637 C-162.10376854 43.88047958 -162.10376854 43.88047958 -160.68888855 43.87876892 C-159.67603287 43.88243973 -158.66317719 43.88611053 -157.61962891 43.88989258 C-155.40312702 43.8893496 -153.18662515 43.88876257 -150.97012329 43.88813782 C-149.20169508 43.89028007 -149.20169508 43.89028007 -147.39754105 43.89246559 C-141.1295674 43.89599258 -134.8616826 43.870148 -128.59375 43.84960938 C-120.62845471 43.82538587 -112.66356918 43.80944844 -104.69824219 43.82495117 C-98.25597276 43.83671868 -91.81434322 43.81892327 -85.37217331 43.78250694 C-82.93338774 43.77397297 -80.49453965 43.77584505 -78.05577469 43.789011 C-63.27467506 43.86274686 -47.57319252 43.74566622 -34 37 C-32.21916452 34.91948149 -32.21916452 34.91948149 -31 33 C-29.68 33 -28.36 33 -27 33 C-26.67 31.68 -26.34 30.36 -26 29 C-23.03 28.505 -23.03 28.505 -20 28 C-20 27.01 -20 26.02 -20 25 C-18.5390625 23.61328125 -18.5390625 23.61328125 -16.625 22.3125 C-15.99851562 21.87550781 -15.37203125 21.43851562 -14.7265625 20.98828125 C-13 20 -13 20 -11 20 C-11 19.01 -11 18.02 -11 17 C-10.34 17 -9.68 17 -9 17 C-9 16.34 -9 15.68 -9 15 C-8.34 15 -7.68 15 -7 15 C-7 14.01 -7 13.02 -7 12 C-6.34 11.67 -5.68 11.34 -5 11 C-5 10.01 -5 9.02 -5 8 C-4.34 8 -3.68 8 -3 8 C-2.67 6.35 -2.34 4.7 -2 3 C-1.34 3 -0.68 3 0 3 C0 2.01 0 1.02 0 0 Z " fill="#1A7AA6" transform="translate(635,351)"/>
<path d="M0 0 C1.99248237 0.00084827 3.98496568 0.00036723 5.97744751 -0.00132751 C11.33591746 -0.00218109 16.69418205 0.01534026 22.05260468 0.03639436 C27.67128939 0.05526862 33.28997988 0.05692001 38.90869141 0.06047058 C49.52591049 0.06975967 60.14303586 0.09433063 70.76021385 0.12451905 C82.85707669 0.15816118 94.95394424 0.17457365 107.05084229 0.18960536 C131.91415496 0.22088326 156.7773847 0.27358218 181.640625 0.34057617 C181.64961608 2.26748818 181.65604177 4.19441229 181.66137695 6.12133789 C181.66522903 7.19439178 181.66908112 8.26744568 181.67304993 9.37301636 C181.63914924 12.47563952 181.38845957 15.41334723 180.828125 18.46557617 C180.60189453 19.79975586 180.60189453 19.79975586 180.37109375 21.16088867 C179.640625 23.34057617 179.640625 23.34057617 176.640625 25.34057617 C176.785 24.42276367 176.929375 23.50495117 177.078125 22.55932617 C177.26375 21.33213867 177.449375 20.10495117 177.640625 18.84057617 C177.82625 17.63401367 178.011875 16.42745117 178.203125 15.18432617 C178.52007013 12.39973682 178.68817725 9.87901091 178.66796875 7.1003418 C178.65894531 5.85961914 178.64992188 4.61889648 178.640625 3.34057617 C154.79595433 3.31716077 130.9512854 3.29955468 107.10660553 3.288764 C96.0337943 3.28361935 84.96099023 3.27661173 73.88818359 3.26513672 C64.23116822 3.25513374 54.57415804 3.24870944 44.91713762 3.24648768 C39.80926908 3.24519007 34.70141539 3.24216482 29.59355164 3.23484612 C24.77390061 3.22799711 19.95427038 3.22597705 15.13461494 3.22746849 C13.37719675 3.22719612 11.61977777 3.22524416 9.86236382 3.2213707 C-0.88171462 3.19887597 -11.66313904 3.20270112 -22.359375 4.34057617 C-22.689375 4.67057617 -23.019375 5.00057617 -23.359375 5.34057617 C-26.06964991 5.62706496 -28.78027108 5.78893038 -31.5 5.96166992 C-36.25206509 6.59138347 -38.67518498 7.47146993 -41.671875 11.27807617 C-42.08308594 11.8169043 -42.49429687 12.35573242 -42.91796875 12.91088867 C-44.63270861 14.61168756 -45.9258251 15.00365751 -48.234375 15.65307617 C-53.71283374 17.34035814 -56.28474385 21.75745412 -59.359375 26.34057617 C-59.359375 21.20452479 -55.81511751 17.91527712 -52.359375 14.34057617 C-49.65394459 12.36071055 -46.90640003 10.62789012 -44.0078125 8.94604492 C-41.31823979 7.42678901 -41.31823979 7.42678901 -39.1338501 5.348279 C-29.0646606 -1.93812275 -11.86387274 -0.07163189 0 0 Z " fill="#2582AE" transform="translate(460.359375,324.659423828125)"/>
<path d="M0 0 C27.10255946 -0.02332556 54.20511743 -0.04097749 81.3076849 -0.05181217 C93.89091769 -0.05697586 106.47414425 -0.06401994 119.05737305 -0.07543945 C130.02060101 -0.08538407 140.98382448 -0.0918529 151.94705683 -0.09408849 C157.75588289 -0.09539598 163.56469605 -0.09848421 169.37351799 -0.10573006 C174.83414752 -0.11248678 180.29475876 -0.11461768 185.75539207 -0.11310768 C187.765832 -0.11338417 189.7762725 -0.11539134 191.78670883 -0.11920547 C194.51891585 -0.12413729 197.25105267 -0.12300019 199.98326111 -0.12025452 C200.78966551 -0.12316736 201.59606992 -0.1260802 202.42691082 -0.12908131 C207.88587879 -0.11412121 207.88587879 -0.11412121 209 1 C212.12605256 13.10725117 206.949206 26.48973606 201 37 C200.484375 38.093125 199.96875 39.18625 199.4375 40.3125 C198.1226019 42.77078775 196.92850897 44.07149103 195 46 C194.67 46.845625 194.34 47.69125 194 48.5625 C193 51 193 51 190 53 C189.79375 53.78375 189.5875 54.5675 189.375 55.375 C187.44054139 59.06805734 184.87164269 59.54633563 181.10546875 61.03125 C178.52487117 62.21861215 177.62161179 63.71500157 176 66 C172.70917674 67.64541163 169.73755864 68.85569505 166.125 69.5625 C165.073125 69.7790625 165.073125 69.7790625 164 70 C163.67 70.66 163.34 71.32 163 72 C161.0085944 72.38133299 159.00720923 72.71325582 157 73 C156.01 73.495 156.01 73.495 155 74 C153.29297265 74.06996014 151.58331997 74.08440154 149.875 74.0625 C148.50988281 74.04896484 148.50988281 74.04896484 147.1171875 74.03515625 C146.06917969 74.01775391 146.06917969 74.01775391 145 74 C145 73.67 145 73.34 145 73 C145.55945313 72.91363281 146.11890625 72.82726562 146.6953125 72.73828125 C156.57858958 71.00632433 167.23367423 68.63138449 174.5546875 61.40234375 C176 60 176 60 179.125 58 C181.57957083 56.29247247 182.93252759 55.02449763 184.75 52.75 C185.86375 51.38875 185.86375 51.38875 187 50 C187.66 50 188.32 50 189 50 C189.185625 49.34 189.37125 48.68 189.5625 48 C190.93757287 45.13028272 192.14609821 43.6933836 194.3125 41.4375 C198.17402108 37.22932881 200.05082682 32.74301115 202.0546875 27.44140625 C203 25 203 25 204 24 C204.38259198 22.4068631 204.70487952 20.79913448 205 19.1875 C205.165 18.31480469 205.33 17.44210937 205.5 16.54296875 C205.95988367 13.2842618 206.26524059 10.05782319 206.53125 6.77856445 C206.61955078 5.69678421 206.70785156 4.61500397 206.79882812 3.5004425 C206.86521484 2.67529648 206.93160156 1.85015045 207 1 C180.8006094 1.1072617 154.60124749 1.2200272 128.40190887 1.33933926 C116.23702444 1.39461004 104.07213706 1.4480819 91.90722656 1.49731445 C81.30392146 1.54023161 70.70063741 1.58652851 60.0973649 1.63687855 C54.48338903 1.66341884 48.86941717 1.68827029 43.25541687 1.70907402 C37.96957037 1.72871513 32.68376373 1.75288092 27.39795303 1.78049088 C25.45980175 1.78982183 23.52164176 1.79751115 21.58347702 1.80341911 C18.93252042 1.81174787 16.28165881 1.82604279 13.6307373 1.84178162 C12.86806848 1.84275972 12.10539966 1.84373783 11.31961966 1.84474558 C6.47005693 1.88164053 1.8029368 2.31977455 -3 3 C-2.01 2.67 -1.02 2.34 0 2 C0 1.34 0 0.68 0 0 Z " fill="#08324F" transform="translate(435,324)"/>
<path d="M0 0 C0 0.66 0 1.32 0 2 C-1.32 2.33 -2.64 2.66 -4 3 C-2.68 3.33 -1.36 3.66 0 4 C0 4.66 0 5.32 0 6 C-10.56384053 9.55467623 -20.76320543 9.35094502 -31.75 9.1875 C-33.52603026 9.17241866 -35.30207297 9.15873639 -37.078125 9.14648438 C-41.38572989 9.11376858 -45.6927238 9.06217936 -50 9 C-50.33 7.68 -50.66 6.36 -51 5 C-53.68182688 7.19671303 -54.88999968 8.38254997 -55.50780869 11.85041428 C-55.51149586 12.96025303 -55.51518303 14.07009178 -55.51898193 15.21356201 C-55.53289474 16.48959793 -55.54680756 17.76563385 -55.56114197 19.08033752 C-55.55642901 20.49203619 -55.55133506 21.90373362 -55.54589844 23.31542969 C-55.55463354 24.8036965 -55.56511911 26.29195393 -55.57722473 27.78019714 C-55.60511347 31.81916223 -55.6084888 35.85782131 -55.60750484 39.89686871 C-55.6106315 44.11834779 -55.63624451 48.33968855 -55.65948486 52.56109619 C-55.70006745 60.55434495 -55.72039085 68.54751209 -55.73345876 76.54084802 C-55.74932118 85.64120367 -55.78773357 94.74142026 -55.82805204 103.84169531 C-55.91048187 122.56108626 -55.96455469 141.2804641 -56 160 C-56.33 160 -56.66 160 -57 160 C-57.11678041 140.26808252 -57.20496221 120.53623512 -57.25906086 100.80404377 C-57.28484703 91.64211287 -57.32000537 82.48039664 -57.37719727 73.31860352 C-57.42701969 65.33355145 -57.45928801 57.34865484 -57.47044247 49.36345166 C-57.47696326 45.13491554 -57.49229709 40.90682418 -57.52865028 36.67843056 C-57.56259172 32.69830734 -57.57305692 28.71881201 -57.56553841 24.73855782 C-57.56691381 23.27803383 -57.57685805 21.81748883 -57.59602737 20.35709 C-57.62092848 18.36214143 -57.61193717 16.36685586 -57.60127258 14.3717804 C-57.60588155 13.25548909 -57.61049051 12.13919779 -57.61523914 10.98907948 C-56.80134497 7.03485387 -55.07134767 5.52716423 -52 3 C-49.76869202 2.3742218 -49.76869202 2.3742218 -47.48852539 2.37231445 C-46.62735611 2.35912674 -45.76618683 2.34593903 -44.87892151 2.33235168 C-43.96110397 2.34255844 -43.04328644 2.3527652 -42.09765625 2.36328125 C-40.66467445 2.34771431 -40.66467445 2.34771431 -39.20274353 2.33183289 C-36.15562876 2.30217708 -33.1097328 2.30552032 -30.0625 2.3125 C-27.0191803 2.30359084 -23.97618573 2.28756588 -20.93296814 2.2610321 C-19.04204231 2.24618636 -17.15098987 2.24227254 -15.26002502 2.25080872 C-9.93058277 2.22780178 -5.04583198 0 0 0 Z " fill="#3E3E3E" transform="translate(520,539)"/>
<path d="M0 0 C31.02 0 62.04 0 94 0 C94 6.93 94 13.86 94 21 C93.34 21 92.68 21 92 21 C92 22.093125 92 23.18625 92 24.3125 C92 26.54166667 92 28.77083333 92 31 C92.20625 31.598125 92.4125 32.19625 92.625 32.8125 C93.15701 35.91589169 92.11591794 38.11174181 91 41 C89 40 89 40 88 37 C87.01 37.99 86.02 38.98 85 40 C85.4640625 38.948125 85.4640625 38.948125 85.9375 37.875 C87.03302678 34.91063343 87.56422992 32.12301892 88 29 C88.66 29 89.32 29 90 29 C90.06058594 28.30132812 90.12117187 27.60265625 90.18359375 26.8828125 C90.26738281 25.97273438 90.35117187 25.06265625 90.4375 24.125 C90.55931641 22.76761719 90.55931641 22.76761719 90.68359375 21.3828125 C91 19 91 19 92 17 C92.33 13.37 92.66 9.74 93 6 C48.45 6.33 3.9 6.66 -42 7 C-39.42765746 4.42765746 -38.4385165 4.74236029 -34.8621521 4.7215271 C-33.2298893 4.70478188 -33.2298893 4.70478188 -31.56465149 4.68769836 C-30.36559677 4.68553818 -29.16654205 4.68337799 -27.93115234 4.68115234 C-26.67264969 4.67110672 -25.41414703 4.6610611 -24.11750793 4.65071106 C-20.66113806 4.6233468 -17.20480908 4.60824276 -13.7483592 4.59528303 C-10.13815065 4.57968047 -6.52802598 4.55288116 -2.9178772 4.5272522 C3.92084801 4.48041332 10.75958891 4.44369403 17.59839284 4.41057932 C25.38310703 4.37239394 33.16773708 4.32297446 40.95238042 4.27259517 C56.96819325 4.16919937 72.98405269 4.07996395 89 4 C89.33 3.34 89.66 2.68 90 2 C60.3 1.67 30.6 1.34 0 1 C0 0.67 0 0.34 0 0 Z " fill="#303030" transform="translate(478,463)"/>
<path d="M0 0 C6.15234375 -0.09765625 6.15234375 -0.09765625 8 0 C8.33 0.33 8.66 0.66 9 1 C10.69519835 1.10837866 12.39489979 1.14686179 14.09352112 1.15821838 C15.74896439 1.17290161 15.74896439 1.17290161 17.43785095 1.18788147 C18.65920242 1.19363693 19.88055389 1.1993924 21.13891602 1.20532227 C22.41677979 1.21522186 23.69464355 1.22512146 25.01123047 1.23532104 C28.52550176 1.2624333 32.03978658 1.28340851 35.55410504 1.30332303 C39.22302054 1.32514374 42.89189407 1.35255152 46.56077576 1.37937927 C53.51287391 1.42935927 60.46499529 1.47427833 67.41713899 1.51740164 C75.3299776 1.56672876 83.24277412 1.62166361 91.15557206 1.67708123 C107.43700927 1.79098271 123.71848502 1.89780387 140 2 C139.67 2.66 139.34 3.32 139 4 C138.01243163 4.00634791 138.01243163 4.00634791 137.00491238 4.01282406 C120.97128483 4.11621278 104.93770281 4.22486268 88.90415096 4.33933926 C81.15038971 4.39457333 73.39662386 4.44803893 65.64282227 4.49731445 C58.88314408 4.54027682 52.12349843 4.5865847 45.36387068 4.63687855 C41.78605253 4.66338269 38.20824043 4.68823278 34.63038445 4.70907402 C30.63236587 4.7324255 26.63443784 4.76324731 22.63647461 4.79467773 C21.45539627 4.8004332 20.27431793 4.80618866 19.05744934 4.81211853 C13.60480857 4.86086058 8.37105571 5.03454233 3 6 C3 5.34 3 4.68 3 4 C3.99 4 4.98 4 6 4 C5.67 3.34 5.34 2.68 5 2 C2.47266765 1.34444881 2.47266765 1.34444881 0 1 C0 0.67 0 0.34 0 0 Z " fill="#030303" transform="translate(428,464)"/>
<path d="M0 0 C1.82337478 -0.00135871 3.64674929 -0.00314127 5.47012329 -0.00531006 C10.36785405 -0.00982365 15.26556348 -0.00812144 20.16329455 -0.00493097 C25.3023908 -0.0023815 30.44148534 -0.00475154 35.58058167 -0.00631714 C44.19028041 -0.00812886 52.79997053 -0.00575622 61.40966797 -0.00097656 C71.37222586 0.00449013 81.33476336 0.00268205 91.29732078 -0.00280297 C99.8657427 -0.0073317 108.43415846 -0.00798662 117.00258118 -0.0053643 C122.11476067 -0.00380353 127.22693054 -0.00360285 132.33910942 -0.00690079 C137.13020289 -0.00977687 141.9212698 -0.00780876 146.71236038 -0.00200653 C148.47447859 -0.00067862 150.23659901 -0.00107357 151.99871635 -0.0032692 C154.39288734 -0.00597884 156.78697171 -0.00260222 159.18113708 0.00241089 C159.88713576 0.00018017 160.59313444 -0.00205055 161.32052702 -0.00434887 C166.1028894 0.01524291 166.1028894 0.01524291 167.21704102 1.12939453 C167.84538846 8.98373753 165.88507869 16.50407945 164.21704102 24.12939453 C163.55704102 24.12939453 162.89704102 24.12939453 162.21704102 24.12939453 C162.21704102 25.11939453 162.21704102 26.10939453 162.21704102 27.12939453 C161.55704102 27.12939453 160.89704102 27.12939453 160.21704102 27.12939453 C159.88704102 28.77939453 159.55704102 30.42939453 159.21704102 32.12939453 C158.52954102 30.50439453 158.52954102 30.50439453 158.21704102 28.12939453 C158.66047852 27.30439453 159.10391602 26.47939453 159.56079102 25.62939453 C161.70123645 21.10618909 162.50665602 16.65258425 163.40454102 11.75439453 C163.58178711 10.82755859 163.7590332 9.90072266 163.94165039 8.94580078 C164.37473308 6.67504291 164.79961528 4.40307329 165.21704102 2.12939453 C141.58132581 2.10599632 117.94561235 2.08838141 94.30988789 2.07758236 C83.33451766 2.07243409 72.35915465 2.06541946 61.38378906 2.05395508 C51.81360007 2.04396328 42.24341631 2.03753042 32.67322224 2.03530604 C27.60960346 2.03400655 22.54599962 2.03096916 17.48238564 2.02366447 C12.70788658 2.01683323 7.93340851 2.01479192 3.15890503 2.01628685 C1.41473972 2.0160137 -0.32942636 2.014051 -2.07358742 2.01018906 C-18.59347504 1.59095661 -18.59347504 1.59095661 -34.78295898 4.12939453 C-34.78295898 3.13939453 -34.78295898 2.14939453 -34.78295898 1.12939453 C-23.16953114 0.253372 -11.64208064 -0.01478252 0 0 Z " fill="#179BD3" transform="translate(472.782958984375,326.87060546875)"/>
<path d="M0 0 C0.92194055 3.13081203 1.11736211 5.91444876 1.10006714 9.17266846 C1.09562592 10.74122841 1.09562592 10.74122841 1.09109497 12.34147644 C1.08278656 13.48336929 1.07447815 14.62526215 1.06591797 15.80175781 C1.06124512 17.0086879 1.05657227 18.21561798 1.05175781 19.4591217 C1.0412503 22.08207684 1.02898164 24.704961 1.01403427 27.32788849 C0.9909307 31.48060226 0.97765466 35.63331123 0.96633911 39.78607178 C0.93294109 51.59426022 0.89138211 63.40237774 0.82861328 75.21044922 C0.79401869 81.73390775 0.77025578 88.25731345 0.75840485 94.78085399 C0.75165259 98.22964957 0.73927152 101.67822097 0.71337509 105.12693024 C0.68445693 108.97818985 0.67899927 112.82929368 0.67529297 116.68066406 C0.6629361 117.81445999 0.65057922 118.94825592 0.6378479 120.1164093 C0.6541289 126.54039679 1.54787019 131.086776 4 137 C3.67 137.99 3.34 138.98 3 140 C-2.39470395 134.60529605 -2.34754289 124.99928986 -2.39547729 117.79550171 C-2.38783356 116.6802713 -2.38018982 115.56504089 -2.37231445 114.41601562 C-2.37596512 113.20978546 -2.37961578 112.0035553 -2.38337708 110.76077271 C-2.39004182 107.4884629 -2.38345038 104.21653258 -2.37004495 100.94425392 C-2.35863982 97.50771731 -2.36284437 94.07119369 -2.36479187 90.63464355 C-2.36567105 84.87519412 -2.35466564 79.11586327 -2.33618164 73.35644531 C-2.31493916 66.69939868 -2.31152338 60.04252454 -2.3177436 53.38545084 C-2.32343418 46.96590303 -2.31780041 40.54641588 -2.30657005 34.12687683 C-2.30192819 31.39966204 -2.30104831 28.67248439 -2.3031559 25.94526672 C-2.30352531 22.14635199 -2.29094373 18.34770305 -2.2746582 14.54882812 C-2.27713562 13.41740387 -2.27961304 12.28597961 -2.28216553 11.12026978 C-2.27508072 10.08868744 -2.26799591 9.0571051 -2.26069641 7.9942627 C-2.25864354 7.09689644 -2.25659067 6.19953018 -2.25447559 5.27497101 C-2 3 -2 3 0 0 Z " fill="#EDEDED" transform="translate(392,511)"/>
<path d="M0 0 C0.66 0 1.32 0 2 0 C1.67 1.98 1.34 3.96 1 6 C0.34 6 -0.32 6 -1 6 C-1.19335938 6.65226562 -1.38671875 7.30453125 -1.5859375 7.9765625 C-1.84632813 8.85054688 -2.10671875 9.72453125 -2.375 10.625 C-2.63023437 11.48351562 -2.88546875 12.34203125 -3.1484375 13.2265625 C-4 16 -4 16 -5.03903198 18.49966431 C-6.3573089 23.30150128 -6.26244433 27.82207649 -6.22705078 32.77880859 C-6.22734283 33.85257751 -6.22763489 34.92634644 -6.22793579 36.03265381 C-6.22654576 39.57133142 -6.21099967 43.1097968 -6.1953125 46.6484375 C-6.19158122 49.1060881 -6.18873479 51.5637402 -6.18673706 54.02139282 C-6.17910972 60.48224004 -6.15946883 66.94299698 -6.1373291 73.40380859 C-6.11685138 79.99966206 -6.10773122 86.59553014 -6.09765625 93.19140625 C-6.07622219 106.12764262 -6.04248277 119.0638165 -6 132 C-5.34 131.67 -4.68 131.34 -4 131 C-4.495 132.98 -4.495 132.98 -5 135 C-6.32 135 -7.64 135 -9 135 C-9.04669788 120.1880742 -9.08197798 105.37615813 -9.10362434 90.5641737 C-9.11394178 83.6868818 -9.128011 76.80963561 -9.15087891 69.93237305 C-9.1729241 63.29937655 -9.1845585 56.66641518 -9.18975449 50.03338051 C-9.19345888 47.49875451 -9.2006923 44.96413121 -9.21146011 42.42952538 C-9.22591113 38.88809901 -9.22798061 35.34687088 -9.22705078 31.80541992 C-9.23424133 30.75022156 -9.24143188 29.69502319 -9.24884033 28.60784912 C-9.246091 27.64451157 -9.24334167 26.68117401 -9.24050903 25.68864441 C-9.24235262 24.85073459 -9.24419621 24.01282476 -9.24609566 23.14952374 C-9 21 -9 21 -7 18 C-6.7834375 16.329375 -6.7834375 16.329375 -6.5625 14.625 C-5.98207371 10.884475 -5.06775371 9.10163057 -3 6 C-1.9849911 4.00757511 -0.98126556 2.00925805 0 0 Z " fill="#13516C" transform="translate(398,352)"/>
<path d="M0 0 C37.62 0 75.24 0 114 0 C114 0.33 114 0.66 114 1 C113.44008677 1.00331015 112.88017353 1.00662029 112.30329323 1.01003075 C98.69147856 1.09118298 85.07977746 1.18337603 71.46811867 1.28752708 C64.88566842 1.3375576 58.30323476 1.38388691 51.72070312 1.421875 C45.37291559 1.45864259 39.02526456 1.50497899 32.67759323 1.55806351 C30.25102499 1.57665292 27.82442743 1.59174389 25.3978157 1.60334396 C22.00937041 1.62012877 18.62124092 1.64914473 15.23291016 1.68115234 C14.22087021 1.68331253 13.20883026 1.68547272 12.16612244 1.68769836 C10.78628426 1.70444359 10.78628426 1.70444359 9.37857056 1.7215271 C8.17563071 1.72982324 8.17563071 1.72982324 6.94838905 1.73828697 C4.76447353 1.83107469 4.76447353 1.83107469 3 4 C2.835 4.680625 2.67 5.36125 2.5 6.0625 C2.335 6.701875 2.17 7.34125 2 8 C1.01 8.495 1.01 8.495 0 9 C-0.00808685 9.6072139 -0.01617371 10.2144278 -0.02450562 10.84004211 C-0.11045023 17.15033191 -0.20994926 23.4603039 -0.31738281 29.77026367 C-0.35570602 32.12632924 -0.39055294 34.482454 -0.421875 36.83862305 C-0.46745274 40.22205787 -0.52545952 43.60508408 -0.5859375 46.98828125 C-0.60326431 48.57277824 -0.60326431 48.57277824 -0.62094116 50.18928528 C-0.64081085 51.17007553 -0.66068054 52.15086578 -0.68115234 53.16137695 C-0.69447601 54.02519485 -0.70779968 54.88901276 -0.7215271 55.77900696 C-1 58 -1 58 -3 61 C-5.15478516 61.34057617 -5.15478516 61.34057617 -7.7890625 61.29296875 C-8.73007812 61.28330078 -9.67109375 61.27363281 -10.640625 61.26367188 C-11.62546875 61.23853516 -12.6103125 61.21339844 -13.625 61.1875 C-15.11386719 61.16719727 -15.11386719 61.16719727 -16.6328125 61.14648438 C-19.08908072 61.11105743 -21.54427285 61.06166196 -24 61 C-24 60.67 -24 60.34 -24 60 C-14.1 59.505 -14.1 59.505 -4 59 C-3.98541748 57.42589355 -3.97083496 55.85178711 -3.95581055 54.22998047 C-3.89777403 48.38160657 -3.82054047 42.53361551 -3.73754883 36.68554688 C-3.70432486 34.15598775 -3.67628511 31.62635495 -3.65356445 29.09667969 C-3.61997296 25.45736333 -3.56765246 21.81872066 -3.51171875 18.1796875 C-3.50213387 16.48717361 -3.50213387 16.48717361 -3.49235535 14.76046753 C-3.47256119 13.69982086 -3.45276703 12.63917419 -3.43237305 11.54638672 C-3.42126999 10.61817108 -3.41016693 9.68995544 -3.39872742 8.73361206 C-3 6 -3 6 0 0 Z " fill="#052C42" transform="translate(466,398)"/>
<path d="M0 0 C44.55 0.33 89.1 0.66 135 1 C134.67 1.66 134.34 2.32 134 3 C116.97155519 3.07003563 99.94315523 3.12296139 82.91459942 3.15543652 C75.00820289 3.17091509 67.10189578 3.19202341 59.19555664 3.22631836 C52.3055647 3.25619054 45.41563751 3.2755678 38.52558261 3.28226548 C34.87625892 3.28618148 31.22712047 3.29540489 27.57785606 3.31719017 C23.50714219 3.341295 19.43675176 3.34197141 15.3659668 3.34057617 C14.15180588 3.351362 12.93764496 3.36214783 11.68669128 3.3732605 C10.02712402 3.36707451 10.02712402 3.36707451 8.33403015 3.36076355 C6.88911965 3.36491162 6.88911965 3.36491162 5.41501904 3.36914349 C3 3 3 3 0 0 Z " fill="#1D1D1D" transform="translate(434,463)"/>
<path d="M0 0 C0.495 1.98 0.495 1.98 1 4 C2.65 3.01 4.3 2.02 6 1 C4.67284363 7.04593459 1.36539471 9.96615425 -3 14 C-3.59039063 14.61101563 -4.18078125 15.22203125 -4.7890625 15.8515625 C-7.70716243 18.68717197 -10.82012219 21.2154112 -14 23.75 C-14.61617187 24.25660156 -15.23234375 24.76320313 -15.8671875 25.28515625 C-16.46789062 25.76339844 -17.06859375 26.24164062 -17.6875 26.734375 C-18.22761719 27.16975586 -18.76773438 27.60513672 -19.32421875 28.05371094 C-21 29 -21 29 -25 29 C-25 29.66 -25 30.32 -25 31 C-28.63423209 33.32590854 -31.77088331 33.16265833 -36 33 C-35.01 32.01 -34.02 31.02 -33 30 C-33.66 29.34 -34.32 28.68 -35 28 C-33.824375 27.5875 -32.64875 27.175 -31.4375 26.75 C-25.93417992 24.68137614 -21.14108535 22.24645648 -17 18 C-15.7553566 16.93123012 -14.5049406 15.86915999 -13.25 14.8125 C-8.18444159 10.41051105 -3.7254477 5.58817154 0 0 Z " fill="#0F0F0F" transform="translate(557,510)"/>
<path d="M0 0 C0.33 0 0.66 0 1 0 C1 34.98 1 69.96 1 106 C3.97 105.505 3.97 105.505 7 105 C4.90080809 109.08790004 2.97561841 110.78120151 -1 113 C-1.02333991 98.56194262 -1.04091812 84.12388817 -1.05181217 69.68581581 C-1.0569728 62.98226924 -1.06401108 56.27873437 -1.07543945 49.57519531 C-1.08627293 43.11078135 -1.09227782 36.64637958 -1.09487724 30.18195724 C-1.09673066 27.71070539 -1.10034967 25.23945424 -1.10573006 22.76820755 C-1.11294657 19.31762479 -1.11399068 15.86709295 -1.11352539 12.41650391 C-1.11712067 11.38576248 -1.12071594 10.35502106 -1.12442017 9.29304504 C-1.1230455 8.35632462 -1.12167084 7.41960419 -1.12025452 6.45449829 C-1.12117631 5.63778971 -1.1220981 4.82108112 -1.12304783 3.97962379 C-1 2 -1 2 0 0 Z " fill="#2993BC" transform="translate(392,372)"/>
<path d="M0 0 C0.66 0.33 1.32 0.66 2 1 C1.350704 1.53106228 0.701408 2.06212456 0.03243637 2.60927963 C-2.57453981 5.67582142 -2.50581906 7.26317573 -2.51898193 11.25152588 C-2.53985115 13.17820099 -2.53985115 13.17820099 -2.56114197 15.14379883 C-2.556429 16.56494268 -2.55133505 17.9860853 -2.54589844 19.40722656 C-2.55463348 20.9053454 -2.56511902 22.4034549 -2.57722473 23.90155029 C-2.60511428 27.96737353 -2.60848878 32.03289279 -2.60750484 36.0987978 C-2.61063143 40.34830364 -2.63624429 44.59767207 -2.65948486 48.84710693 C-2.70006799 56.89347966 -2.72039098 64.93977129 -2.73345876 72.98623061 C-2.74932099 82.14704413 -2.78773331 91.30771949 -2.82805204 100.46845293 C-2.91048261 119.31225829 -2.96455497 138.15605064 -3 157 C-5.39717871 157.02033901 -7.79418257 157.03517239 -10.19140625 157.046875 C-11.20249451 157.05630127 -11.20249451 157.05630127 -12.23400879 157.06591797 C-21.03071983 157.09809125 -27.3357242 155.18051407 -35 151 C-31.28272326 149.86416544 -29.52948291 150.33329974 -26 152 C-26 152.66 -26 153.32 -26 154 C-18.74 154.66 -11.48 155.32 -4 156 C-4 105.51 -4 55.02 -4 3 C-3.34 3 -2.68 3 -2 3 C-2 2.34 -2 1.68 -2 1 C-1.34 0.67 -0.68 0.34 0 0 Z " fill="#A4A4A4" transform="translate(466,542)"/>
<path d="M0 0 C0.33 0 0.66 0 1 0 C1 17.49 1 34.98 1 53 C-9.395 53.495 -9.395 53.495 -20 54 C-25.66632989 55.08312292 -25.66632989 55.08312292 -31.28515625 56.37890625 C-34 57 -34 57 -38 57 C-38 57.66 -38 58.32 -38 59 C-38.94101562 59.44730469 -39.88203125 59.89460938 -40.8515625 60.35546875 C-42.10958875 60.96570537 -43.36738929 61.57640747 -44.625 62.1875 C-45.24246094 62.47947266 -45.85992187 62.77144531 -46.49609375 63.07226562 C-49.77384419 64.67663821 -52.56435793 66.35000524 -55.3359375 68.73828125 C-58 71 -58 71 -60 71 C-60.495 71.99 -60.495 71.99 -61 73 C-61 70 -61 70 -59 68 C-58.01 68 -57.02 68 -56 68 C-56 67.278125 -56 66.55625 -56 65.8125 C-54.4308995 61.39940485 -51.08888958 59.98249192 -47 58 C-44.77519592 57.16101664 -42.55898747 56.42766556 -40.2734375 55.7734375 C-37.86191421 55.03401362 -37.86191421 55.03401362 -35.33203125 53.4699707 C-31.421921 51.74497262 -28.67454957 51.65590541 -24.4140625 51.70703125 C-23.12967285 51.71452393 -21.8452832 51.7220166 -20.52197266 51.72973633 C-18.09797119 51.77070435 -18.09797119 51.77070435 -15.625 51.8125 C-10.46875 51.874375 -5.3125 51.93625 0 52 C0 34.84 0 17.68 0 0 Z " fill="#1E96CA" transform="translate(460,404)"/>
<path d="M0 0 C0.33 0 0.66 0 1 0 C1.00219984 0.84785206 1.00219984 0.84785206 1.00444412 1.71283245 C1.04163364 15.52050289 1.1010562 29.32792724 1.18390274 43.13540173 C1.22356842 49.81285364 1.25553049 56.49016773 1.27099609 63.16772461 C1.2862085 69.61939319 1.320736 76.07070283 1.36830902 82.52221107 C1.3830755 84.97596417 1.39103828 87.42976852 1.39188385 89.8835659 C1.40235226 105.03804186 1.77514789 117.62527366 9.1171875 131.2109375 C10.51434817 134.04235161 11.23585252 136.94341008 12 140 C11.01 139.67 10.02 139.34 9 139 C9 137.35 9 135.7 9 134 C8.34 134 7.68 134 7 134 C5.02 128.72 3.04 123.44 1 118 C-0.65 118 -2.3 118 -4 118 C-4 114.04 -4 110.08 -4 106 C-3.34 106 -2.68 106 -2 106 C-2 107.65 -2 109.3 -2 111 C-1.34 111 -0.68 111 0 111 C0 74.37 0 37.74 0 0 Z " fill="#606060" transform="translate(389,526)"/>
<path d="M0 0 C3.96 0 7.92 0 12 0 C9.33429184 1.77713878 7.96686066 2.35056211 5 3.125 C-0.22306493 4.78067745 -4.11811547 7.74029966 -8.421875 11.0625 C-11 13 -11 13 -13.625 14.5 C-16.15128241 16.09554679 -17.51411124 17.58802825 -19.25 20 C-20.00023437 21.0209375 -20.00023437 21.0209375 -20.765625 22.0625 C-22.16211179 24.08126594 -22.16211179 24.08126594 -23 27 C-23.66 27 -24.32 27 -25 27 C-25.18175781 27.62648438 -25.36351562 28.25296875 -25.55078125 28.8984375 C-25.80214844 29.71570313 -26.05351562 30.53296875 -26.3125 31.375 C-26.55613281 32.18710937 -26.79976563 32.99921875 -27.05078125 33.8359375 C-28 36 -28 36 -31 38 C-31.80967438 35.08517222 -32.21845993 33.53886783 -31.0625 30.6875 C-30.711875 30.130625 -30.36125 29.57375 -30 29 C-29.34 29 -28.68 29 -28 29 C-28 27.02 -28 25.04 -28 23 C-27.360625 22.896875 -26.72125 22.79375 -26.0625 22.6875 C-25.0415625 22.3471875 -25.0415625 22.3471875 -24 22 C-23.67 21.01 -23.34 20.02 -23 19 C-22.01 19 -21.02 19 -20 19 C-19.7525 18.2575 -19.505 17.515 -19.25 16.75 C-17.89534961 13.76976913 -16.4898459 12.10080748 -14 10 C-13.34 10 -12.68 10 -12 10 C-12 9.01 -12 8.02 -12 7 C-10.02 7 -8.04 7 -6 7 C-6 6.34 -6 5.68 -6 5 C-4.68 5 -3.36 5 -2 5 C-2 4.34 -2 3.68 -2 3 C-1.34 3 -0.68 3 0 3 C0 2.01 0 1.02 0 0 Z " fill="#000E1D" transform="translate(423,325)"/>
<path d="M0 0 C0.804375 0.37125 1.60875 0.7425 2.4375 1.125 C3.4275 0.795 4.4175 0.465 5.4375 0.125 C5.7675 1.115 6.0975 2.105 6.4375 3.125 C5.55707031 3.78886719 4.67664063 4.45273437 3.76953125 5.13671875 C2.5962036 6.02844776 1.42303497 6.92038602 0.25 7.8125 C-0.6172168 8.46508789 -0.6172168 8.46508789 -1.50195312 9.13085938 C-8.90486437 14.61646605 -8.90486437 14.61646605 -13.375 22.4375 C-13.766875 23.654375 -14.15875 24.87125 -14.5625 26.125 C-15.8825 26.125 -17.2025 26.125 -18.5625 26.125 C-18.8925 24.475 -19.2225 22.825 -19.5625 21.125 C-18.2425 21.455 -16.9225 21.785 -15.5625 22.125 C-15.2325 21.135 -14.9025 20.145 -14.5625 19.125 C-15.2225 18.795 -15.8825 18.465 -16.5625 18.125 C-15.9025 17.135 -15.2425 16.145 -14.5625 15.125 C-13.9025 15.125 -13.2425 15.125 -12.5625 15.125 C-12.48 14.5475 -12.3975 13.97 -12.3125 13.375 C-11.5625 11.125 -11.5625 11.125 -9.5625 9.1875 C-7.35128117 7.28257871 -7.35128117 7.28257871 -7.0625 4.5625 C-6.5625 2.125 -6.5625 2.125 -4.8125 0.1875 C-2.5625 -0.875 -2.5625 -0.875 0 0 Z " fill="#131516" transform="translate(413.5625,472.875)"/>
<path d="M0 0 C0.5625 1.9375 0.5625 1.9375 1 4 C0.67 4.33 0.34 4.66 0 5 C-0.10809116 6.58113613 -0.14684044 8.16706062 -0.15821838 9.75184631 C-0.1680072 10.77974777 -0.17779602 11.80764923 -0.18788147 12.86669922 C-0.19363693 14.00389404 -0.1993924 15.14108887 -0.20532227 16.31274414 C-0.21522186 17.50282578 -0.22512146 18.69290741 -0.23532104 19.91905212 C-0.26157103 23.19160309 -0.28340731 26.46414865 -0.30332303 29.73674321 C-0.32514533 33.15341561 -0.35255233 36.57004297 -0.37937927 39.98667908 C-0.42935712 46.46065999 -0.47427698 52.93466584 -0.51740164 59.40869564 C-0.56673059 66.77741119 -0.62166477 74.14608157 -0.67708123 81.51475346 C-0.79097941 96.67646023 -0.89780129 111.83820952 -1 127 C-1.33 127 -1.66 127 -2 127 C-2.04669327 110.8842296 -2.0819757 94.76848109 -2.10362434 78.65265942 C-2.11394276 71.17002796 -2.12801385 63.68743849 -2.15087891 56.20483398 C-2.17079552 49.68400635 -2.18371233 43.16320913 -2.18817699 36.64235193 C-2.19078731 33.1886912 -2.19693436 29.73511748 -2.21146011 26.2814846 C-2.22753337 22.4287692 -2.2279808 18.57613941 -2.22705078 14.72338867 C-2.23424133 13.57468292 -2.24143188 12.42597717 -2.24884033 11.24246216 C-2.246091 10.19498306 -2.24334167 9.14750397 -2.24050903 8.06828308 C-2.24235262 7.15662982 -2.24419621 6.24497656 -2.24609566 5.30569744 C-2 3 -2 3 0 0 Z " fill="#B3B3B3" transform="translate(392,511)"/>
<path d="M0 0 C0.90443848 -0.00412399 1.80887695 -0.00824799 2.74072266 -0.01249695 C3.73046585 -0.00171112 4.72020905 0.00907471 5.73994446 0.02018738 C6.78401459 0.0197493 7.82808472 0.01931122 8.90379333 0.01885986 C12.36149165 0.02095312 15.8187076 0.04431 19.27632141 0.0677948 C21.67099747 0.07338883 24.06567695 0.07765984 26.46035767 0.08065796 C32.76841177 0.09212186 39.07625921 0.12160254 45.38423157 0.1547699 C51.8189362 0.18543737 58.25367417 0.1991562 64.68843079 0.21427917 C77.31807633 0.24647058 89.94757852 0.29711048 102.57710266 0.36076355 C102.57710266 0.69076355 102.57710266 1.02076355 102.57710266 1.36076355 C101.2852858 1.36440918 99.99346893 1.36805481 98.6625061 1.37181091 C86.49366018 1.40873777 74.32506786 1.46648537 62.15641499 1.54466629 C55.90023047 1.58419042 49.64418776 1.61635483 43.38789368 1.63175964 C37.35121398 1.64689348 31.314924 1.68128136 25.27841759 1.72907257 C22.9743558 1.74392007 20.67023839 1.75180649 18.36612892 1.7526474 C15.14086384 1.75500859 11.91668319 1.78202128 8.69160461 1.81486511 C7.73710419 1.80983475 6.78260376 1.80480438 5.79917908 1.79962158 C1.42810253 1.86857593 -0.80765006 1.96120305 -4.55505371 4.3948822 C-5.47963631 5.36799347 -5.47963631 5.36799347 -6.42289734 6.36076355 C-6.75289734 5.37076355 -7.08289734 4.38076355 -7.42289734 3.36076355 C-5.0613876 0.50925442 -3.67216386 -0.012915 0 0 Z " fill="#001121" transform="translate(475.4228973388672,398.6392364501953)"/>
<path d="M0 0 C4.29 1.65 8.58 3.3 13 5 C13 5.99 13 6.98 13 8 C13.9075 8.268125 14.815 8.53625 15.75 8.8125 C18.71471963 9.89576294 20.6169754 10.98359457 23 13 C22.67 13.33 22.34 13.66 22 14 C24.97 14.495 24.97 14.495 28 15 C27.67 15.66 27.34 16.32 27 17 C20.22613615 16.72740991 15.65275661 15.80946641 10 12 C10 11.34 10 10.68 10 10 C9.34 10 8.68 10 8 10 C8 9.34 8 8.68 8 8 C8.66 8 9.32 8 10 8 C10 7.34 10 6.68 10 6 C8.68 6 7.36 6 6 6 C6 5.34 6 4.68 6 4 C4.081875 4.061875 4.081875 4.061875 2.125 4.125 C-0.0546875 4.1953125 -0.0546875 4.1953125 -2 4 C-2.66 3.34 -3.32 2.68 -4 2 C-2.68 2 -1.36 2 0 2 C0 1.34 0 0.68 0 0 Z " fill="#111111" transform="translate(418,685)"/>
<path d="M0 0 C0 0.99 0 1.98 0 3 C-0.99 3.495 -0.99 3.495 -2 4 C-1.67 5.32 -1.34 6.64 -1 8 C-5.5 12 -5.5 12 -10 12 C-10 12.66 -10 13.32 -10 14 C-13.63423209 16.32590854 -16.77088331 16.16265833 -21 16 C-20.01 15.01 -19.02 14.02 -18 13 C-18.66 12.34 -19.32 11.68 -20 11 C-18.824375 10.5875 -17.64875 10.175 -16.4375 9.75 C-11.03093208 7.71774398 -5.93771464 5.35221092 -2 1 C-1.34 0.67 -0.68 0.34 0 0 Z " fill="#141414" transform="translate(542,527)"/>
<path d="M0 0 C0.33 0 0.66 0 1 0 C3.71076714 12.42658602 -0.88241633 25.19226885 -7 36 C-7.474375 37.11375 -7.94875 38.2275 -8.4375 39.375 C-10.31706881 42.5326756 -11.65645671 42.76816826 -15 44 C-15.65213292 46.02463255 -15.65213292 46.02463255 -16 48 C-17.485 48.495 -17.485 48.495 -19 49 C-17.96116667 45.30637037 -16.28579668 43.14311763 -13.6875 40.4375 C-9.82597892 36.22932881 -7.94917318 31.74301115 -5.9453125 26.44140625 C-5 24 -5 24 -4 23 C-3.6301145 21.17369035 -3.30326536 19.33854626 -3 17.5 C-2.11111111 12.11111111 -2.11111111 12.11111111 -1 11 C-0.76636119 9.15108054 -0.58696365 7.29511969 -0.4375 5.4375 C-0.35371094 4.42558594 -0.26992188 3.41367187 -0.18359375 2.37109375 C-0.09271484 1.19740234 -0.09271484 1.19740234 0 0 Z " fill="#06354C" transform="translate(643,325)"/>
<path d="M0 0 C-1.98 0.33 -3.96 0.66 -6 1 C-6.0928125 1.928125 -6.0928125 1.928125 -6.1875 2.875 C-7 5 -7 5 -9.375 6.0625 C-10.674375 6.5265625 -10.674375 6.5265625 -12 7 C-13.00561784 7.99435042 -14.00485428 8.99516917 -15 10 C-16.41725395 10.98802847 -17.85670246 11.9446976 -19.3125 12.875 C-26.09399667 17.0247457 -26.09399667 17.0247457 -31 23 C-31.66 22.67 -32.32 22.34 -33 22 C-26.87608248 12.31655542 -20.84429847 7.32144052 -10.75 2.0625 C-10.14728271 1.74321533 -9.54456543 1.42393066 -8.92358398 1.0949707 C-5.62017981 -0.55005551 -3.49954725 -1.53321748 0 0 Z " fill="#042438" transform="translate(426,463)"/>
<path d="M0 0 C0.33 0.66 0.66 1.32 1 2 C0.01 2.495 0.01 2.495 -1 3 C0.98 3.66 2.96 4.32 5 5 C5 5.33 5 5.66 5 6 C0.43755363 6.05813173 -4.12479724 6.09364122 -8.6875 6.125 C-9.98107422 6.14175781 -11.27464844 6.15851563 -12.60742188 6.17578125 C-13.85458984 6.18222656 -15.10175781 6.18867188 -16.38671875 6.1953125 C-17.53358154 6.20578613 -18.68044434 6.21625977 -19.86206055 6.22705078 C-22.99191655 6.00058489 -25.18079905 5.33456032 -28 4 C-28 3.67 -28 3.34 -28 3 C-21.70197953 1.74873765 -15.38897423 1.63916757 -8.9921875 1.39453125 C-7.68894531 1.33845703 -7.68894531 1.33845703 -6.359375 1.28125 C-5.57014648 1.25095703 -4.78091797 1.22066406 -3.96777344 1.18945312 C-1.92373209 1.11163186 -1.92373209 1.11163186 0 0 Z " fill="#03060D" transform="translate(463,458)"/>
<path d="M0 0 C0.33 0.99 0.66 1.98 1 3 C0.01 3 -0.98 3 -2 3 C-2 3.66 -2 4.32 -2 5 C-0.35 5 1.3 5 3 5 C3 5.33 3 5.66 3 6 C-4 8 -4 8 -11 10 C-11 9.34 -11 8.68 -11 8 C-11.66 8 -12.32 8 -13 8 C-13 7.01 -13 6.02 -13 5 C-12.01 5 -11.02 5 -10 5 C-10 4.34 -10 3.68 -10 3 C-10.66 2.67 -11.32 2.34 -12 2 C-7.72424275 -1.23921004 -5.16347713 -1.11369115 0 0 Z " fill="#06090A" transform="translate(433,465)"/>
<path d="M0 0 C0 0.66 0 1.32 0 2 C-1.32 2.33 -2.64 2.66 -4 3 C-2.68 3.33 -1.36 3.66 0 4 C0 4.66 0 5.32 0 6 C-4.87649008 7.94924707 -9.27792544 8.26603667 -14.4609375 8.1953125 C-15.25150543 8.1924826 -16.04207336 8.18965271 -16.8565979 8.18673706 C-19.36289084 8.17560955 -21.86881645 8.15051926 -24.375 8.125 C-26.08202606 8.11496058 -27.78905777 8.10583641 -29.49609375 8.09765625 C-33.6642024 8.07569463 -37.83203908 8.04121671 -42 8 C-42 7.67 -42 7.34 -42 7 C-41.24904053 6.97494385 -40.49808105 6.9498877 -39.72436523 6.92407227 C-36.29526467 6.80745058 -32.86639447 6.68502583 -29.4375 6.5625 C-28.25607422 6.52318359 -27.07464844 6.48386719 -25.85742188 6.44335938 C-20.16986877 6.2362496 -14.61004186 5.98031568 -9 5 C-9.495 4.01 -9.495 4.01 -10 3 C-8.70990357 2.49596232 -7.41786211 1.99690074 -6.125 1.5 C-5.40570312 1.2215625 -4.68640625 0.943125 -3.9453125 0.65625 C-2 0 -2 0 0 0 Z " fill="#1A1A1A" transform="translate(520,539)"/>
<path d="M0 0 C0.66 0 1.32 0 2 0 C2 1.65 2 3.3 2 5 C2.66 5 3.32 5 4 5 C4.33 6.65 4.66 8.3 5 10 C5.66 10 6.32 10 7 10 C7.23074219 10.66644531 7.46148437 11.33289063 7.69921875 12.01953125 C9.86004525 18.12621484 12.29728549 23.96541932 15.14453125 29.78515625 C15.42683594 30.51605469 15.70914062 31.24695313 16 32 C15.67 32.66 15.34 33.32 15 34 C14.34 33.67 13.68 33.34 13 33 C13 31.35 13 29.7 13 28 C12.34 28 11.68 28 11 28 C9.02 22.72 7.04 17.44 5 12 C3.35 12 1.7 12 0 12 C0 8.04 0 4.08 0 0 Z " fill="#383838" transform="translate(385,632)"/>
<path d="M0 0 C4.62642926 -0.07426356 9.25251009 -0.12865492 13.87939453 -0.16479492 C15.45269822 -0.17986364 17.02596002 -0.20032245 18.59912109 -0.22631836 C20.86306096 -0.26278738 23.12644457 -0.27974508 25.390625 -0.29296875 C26.09181458 -0.30845261 26.79300415 -0.32393646 27.51544189 -0.33988953 C32.1248373 -0.34147112 33.08284611 0.06213459 37 3 C24.46 3 11.92 3 -1 3 C-0.67 2.01 -0.34 1.02 0 0 Z " fill="#0F0F0F" transform="translate(471,545)"/>
<path d="M0 0 C0.33 1.32 0.66 2.64 1 4 C-0.2065625 4.8971875 -0.2065625 4.8971875 -1.4375 5.8125 C-4.22327984 7.80947276 -4.22327984 7.80947276 -5 11 C-5.66 11 -6.32 11 -7 11 C-7.33 11.66 -7.66 12.32 -8 13 C-8 12.01 -8 11.02 -8 10 C-9.65 10 -11.3 10 -13 10 C-12.34 9.67 -11.68 9.34 -11 9 C-10.731875 8.401875 -10.46375 7.80375 -10.1875 7.1875 C-8.18959411 3.50714705 -4.36074526 0 0 0 Z " fill="#05090E" transform="translate(406,477)"/>
<path d="M0 0 C-1.175625 0.37125 -2.35125 0.7425 -3.5625 1.125 C-8.54710023 2.97870364 -13.56012141 6.12024281 -16 11 C-17.19625 11.350625 -18.3925 11.70125 -19.625 12.0625 C-25.18469127 13.96925333 -27.83146982 18.2769097 -31 23 C-31 17.86394862 -27.45574251 14.57470095 -24 11 C-21.29456959 9.02013438 -18.54702503 7.28731395 -15.6484375 5.60546875 C-12.89658868 3.93731261 -10.50045649 2.01910797 -8 0 C-4.91867395 -1.21385572 -3.13402498 -0.85354942 0 0 Z " fill="#166689" transform="translate(432,328)"/>
<path d="M0 0 C0.33 1.32 0.66 2.64 1 4 C2.65 3.01 4.3 2.02 6 1 C4.83857315 5.35535069 3.92300495 7.64619703 0 10 C-0.33 9.34 -0.66 8.68 -1 8 C-4.21524305 9.40844718 -6.32183868 11.10344786 -8.75 13.625 C-9.36359375 14.25664063 -9.9771875 14.88828125 -10.609375 15.5390625 C-11.06828125 16.02117188 -11.5271875 16.50328125 -12 17 C-12.66 16.67 -13.32 16.34 -14 16 C-13.32453125 15.34773437 -12.6490625 14.69546875 -11.953125 14.0234375 C-5.3083956 7.54394465 -5.3083956 7.54394465 0 0 Z " fill="#404040" transform="translate(557,510)"/>
<path d="M0 0 C0.8971875 0.309375 0.8971875 0.309375 1.8125 0.625 C1.19375 1.223125 0.575 1.82125 -0.0625 2.4375 C-2.32426954 4.63311144 -2.32426954 4.63311144 -4.1875 7.625 C-4.8475 7.625 -5.5075 7.625 -6.1875 7.625 C-6.1875 8.285 -6.1875 8.945 -6.1875 9.625 C-6.8475 9.295 -7.5075 8.965 -8.1875 8.625 C-12.05344991 9.00672194 -13.82824089 10.94777793 -16.4375 13.6875 C-17.14390625 14.42097656 -17.8503125 15.15445312 -18.578125 15.91015625 C-19.37476563 16.75900391 -19.37476563 16.75900391 -20.1875 17.625 C-20.1875 14.625 -20.1875 14.625 -18.9375 13.01171875 C-4.70606194 -0.80675348 -4.70606194 -0.80675348 0 0 Z " fill="#B3B6B6" transform="translate(422.1875,475.375)"/>
<path d="M0 0 C1.1774734 0.73291712 2.34176854 1.48703801 3.5 2.25 C4.1496875 2.66765625 4.799375 3.0853125 5.46875 3.515625 C5.9740625 4.00546875 6.479375 4.4953125 7 5 C7 6.32 7 7.64 7 9 C7.61875 9.0825 8.2375 9.165 8.875 9.25 C11 10 11 10 12.25 12.0625 C12.4975 12.701875 12.745 13.34125 13 14 C11.35 14.33 9.7 14.66 8 15 C7.79375 14.401875 7.5875 13.80375 7.375 13.1875 C5.50270764 10.20885306 3.11137489 9.52258771 0 8 C-0.33 7.01 -0.66 6.02 -1 5 C1 6 3 7 5 8 C4.175 7.05125 3.35 6.1025 2.5 5.125 C0 2.25 0 2.25 0 0 Z " fill="#373737" transform="translate(405,671)"/>
<path d="M0 0 C1.20220203 3.53094302 0.79532349 6.12898982 0.0625 9.75 C-0.13214844 10.73484375 -0.32679688 11.7196875 -0.52734375 12.734375 C-0.68332031 13.48203125 -0.83929687 14.2296875 -1 15 C-0.34 14.67 0.32 14.34 1 14 C0.33333333 17.33333333 -0.33333333 20.66666667 -1 24 C-3 23 -3 23 -4 20 C-4.99 20.99 -5.98 21.98 -7 23 C-6.690625 22.29875 -6.38125 21.5975 -6.0625 20.875 C-4.96697322 17.91063343 -4.43577008 15.12301892 -4 12 C-3.34 12 -2.68 12 -2 12 C-1.93941406 11.30132812 -1.87882813 10.60265625 -1.81640625 9.8828125 C-1.73261719 8.97273438 -1.64882813 8.06265625 -1.5625 7.125 C-1.48128906 6.22007812 -1.40007813 5.31515625 -1.31640625 4.3828125 C-1 2 -1 2 0 0 Z " fill="#2C2C2C" transform="translate(570,480)"/>
<path d="M0 0 C1.32 0.33 2.64 0.66 4 1 C-1.5 5 -1.5 5 -6 5 C-6 5.66 -6 6.32 -6 7 C-16.37357631 10.44419134 -16.37357631 10.44419134 -22 10 C-22 9.34 -22 8.68 -22 8 C-21.36908447 7.82871582 -20.73816895 7.65743164 -20.08813477 7.48095703 C-17.24393505 6.70385902 -14.40325095 5.91460757 -11.5625 5.125 C-10.56927734 4.85558594 -9.57605469 4.58617187 -8.55273438 4.30859375 C-7.60849609 4.04433594 -6.66425781 3.78007812 -5.69140625 3.5078125 C-4.81685791 3.26691895 -3.94230957 3.02602539 -3.04125977 2.77783203 C-0.81456717 2.19293381 -0.81456717 2.19293381 0 0 Z " fill="#2292C0" transform="translate(602,386)"/>
<path d="M0 0 C-1.28716647 1.00578589 -2.57988658 2.00446798 -3.875 3 C-4.59429688 3.556875 -5.31359375 4.11375 -6.0546875 4.6875 C-8 6 -8 6 -10 6 C-10.36158203 6.92039062 -10.36158203 6.92039062 -10.73046875 7.859375 C-12.96367913 11.62491127 -16.98060897 12.66944297 -21 14 C-24.0625 14.25 -24.0625 14.25 -26 14 C-24.68 13.67 -23.36 13.34 -22 13 C-22 12.34 -22 11.68 -22 11 C-20.96875 10.5875 -19.9375 10.175 -18.875 9.75 C-15.28322891 8.20232628 -12.12299241 6.37942279 -9 4 C-8.67 3.01 -8.34 2.02 -8 1 C-2.59770115 -1.29885057 -2.59770115 -1.29885057 0 0 Z " fill="#1F7FAC" transform="translate(618,380)"/>
<path d="M0 0 C3.96 0 7.92 0 12 0 C9.33429184 1.77713878 7.96686066 2.35056211 5 3.125 C-1.18699258 5.07181315 -5.95965997 9.03367635 -11 13 C-11 12.01 -11 11.02 -11 10 C-10.34 10 -9.68 10 -9 10 C-9 9.01 -9 8.02 -9 7 C-8.01 7 -7.02 7 -6 7 C-6 6.34 -6 5.68 -6 5 C-4.68 5 -3.36 5 -2 5 C-2 4.34 -2 3.68 -2 3 C-1.34 3 -0.68 3 0 3 C0 2.01 0 1.02 0 0 Z " fill="#021227" transform="translate(423,325)"/>
<path d="M0 0 C0.33 0 0.66 0 1 0 C1.01458252 0.77601563 1.02916504 1.55203125 1.04418945 2.3515625 C1.11911766 5.90151773 1.21563113 9.45057843 1.3125 13 C1.33505859 14.22074219 1.35761719 15.44148437 1.38085938 16.69921875 C1.58431441 23.54270617 2.35264182 28.71159737 5 35 C4.67 35.99 4.34 36.98 4 38 C0.57503458 34.57503458 0.08271947 30.25938175 -0.22705078 25.54321289 C-0.21657715 24.3649292 -0.20610352 23.18664551 -0.1953125 21.97265625 C-0.18886719 20.68681641 -0.18242187 19.40097656 -0.17578125 18.07617188 C-0.15907601 16.73827846 -0.14214619 15.40038783 -0.125 14.0625 C-0.11495322 12.69727217 -0.10583036 11.3320372 -0.09765625 9.96679688 C-0.07417605 6.64434801 -0.04133359 3.32226679 0 0 Z " fill="#ECECEC" transform="translate(391,613)"/>
<path d="M0 0 C0 0.66 0 1.32 0 2 C-0.99 2 -1.98 2 -3 2 C-3 2.99 -3 3.98 -3 5 C-2.34 5 -1.68 5 -1 5 C-1 5.66 -1 6.32 -1 7 C-1.99 7 -2.98 7 -4 7 C-4 6.34 -4 5.68 -4 5 C-5.98 5.99 -5.98 5.99 -8 7 C-8.66 6.34 -9.32 5.68 -10 5 C-9.75 2.9375 -9.75 2.9375 -9 1 C-6.04335481 -0.4783226 -3.25770263 -0.06032783 0 0 Z " fill="#060707" transform="translate(423,468)"/>
<path d="M0 0 C-1.98 0.33 -3.96 0.66 -6 1 C-6.05414063 1.61359375 -6.10828125 2.2271875 -6.1640625 2.859375 C-7 5 -7 5 -9.3984375 6.265625 C-10.38070313 6.59046875 -11.36296875 6.9153125 -12.375 7.25 C-13.35210937 7.58515625 -14.32921875 7.9203125 -15.3359375 8.265625 C-18 9 -18 9 -21 9 C-17.87797117 5.48771756 -14.75126289 3.6522465 -10.5 1.6875 C-8.81390625 0.88892578 -8.81390625 0.88892578 -7.09375 0.07421875 C-4.0463661 -0.98390066 -2.91262612 -1.22073301 0 0 Z " fill="#083954" transform="translate(426,463)"/>
<path d="M0 0 C1.32 0 2.64 0 4 0 C3.67 0.99 3.34 1.98 3 3 C2.34 3 1.68 3 1 3 C1 3.99 1 4.98 1 6 C0.34 6 -0.32 6 -1 6 C-1 6.66 -1 7.32 -1 8 C-1.66 8 -2.32 8 -3 8 C-3 8.99 -3 9.98 -3 11 C-4.75 12.38671875 -4.75 12.38671875 -7 13.6875 C-8.11375 14.34298828 -8.11375 14.34298828 -9.25 15.01171875 C-9.8275 15.33785156 -10.405 15.66398437 -11 16 C-10.75 14.125 -10.75 14.125 -10 12 C-9.38125 11.69320313 -8.7625 11.38640625 -8.125 11.0703125 C-4.51354177 9.25130596 -3.3754871 5.59536385 -1.5625 2.1171875 C-1.046875 1.41851562 -0.53125 0.71984375 0 0 Z " fill="#0B9ADB" transform="translate(627,360)"/>
<path d="M0 0 C0.33 0 0.66 0 1 0 C2.36678645 8.81000905 2.02473864 15.46289203 -3 23 C-3.25025227 15.49243189 -3.25025227 15.49243189 -2.03125 13.09375 C-0.72667747 10.44507245 -0.58465282 8.18513943 -0.375 5.25 C-0.30023437 4.26515625 -0.22546875 3.2803125 -0.1484375 2.265625 C-0.09945312 1.51796875 -0.05046875 0.7703125 0 0 Z " fill="#032236" transform="translate(643,325)"/>
<path d="M0 0 C0.66 0 1.32 0 2 0 C1.67 1.98 1.34 3.96 1 6 C0.34 6 -0.32 6 -1 6 C-1.19335938 6.65226562 -1.38671875 7.30453125 -1.5859375 7.9765625 C-2.98640448 12.6771398 -4.41208726 17.35840891 -6 22 C-7.38476869 18.15342029 -6.83061477 14.94542017 -6 11 C-4.625 8.4375 -4.625 8.4375 -3 6 C-1.9849911 4.00757511 -0.98126556 2.00925805 0 0 Z " fill="#1B7395" transform="translate(398,352)"/>
<path d="M0 0 C0.66 0 1.32 0 2 0 C0.7023817 5.29860806 -1.15015702 9.34525646 -4 14 C-4.66 14 -5.32 14 -6 14 C-6.33 14.66 -6.66 15.32 -7 16 C-7 14.68 -7 13.36 -7 12 C-6.34 11.67 -5.68 11.34 -5 11 C-5 10.01 -5 9.02 -5 8 C-4.34 8 -3.68 8 -3 8 C-2.67 6.35 -2.34 4.7 -2 3 C-1.34 3 -0.68 3 0 3 C0 2.01 0 1.02 0 0 Z " fill="#1D81AB" transform="translate(635,351)"/>
<path d="M0 0 C2.31 0.33 4.62 0.66 7 1 C7 1.66 7 2.32 7 3 C8.32 3 9.64 3 11 3 C11 3.66 11 4.32 11 5 C10.34 5 9.68 5 9 5 C9 5.66 9 6.32 9 7 C9.66 7.33 10.32 7.66 11 8 C10.01 8 9.02 8 8 8 C7.67 7.34 7.34 6.68 7 6 C5.7934375 5.566875 5.7934375 5.566875 4.5625 5.125 C2 4 2 4 0.6875 1.875 C0.460625 1.25625 0.23375 0.6375 0 0 Z " fill="#0C0C0C" transform="translate(417,688)"/>
<path d="M0 0 C0.66 0 1.32 0 2 0 C2 0.66 2 1.32 2 2 C2.66 2.33 3.32 2.66 4 3 C2.35 5.31 0.7 7.62 -1 10 C-1.33 9.01 -1.66 8.02 -2 7 C-1.34 7 -0.68 7 0 7 C0 6.34 0 5.68 0 5 C-2.475 6.485 -2.475 6.485 -5 8 C-4.75 6.125 -4.75 6.125 -4 4 C-1.9375 2.75 -1.9375 2.75 0 2 C0 1.34 0 0.68 0 0 Z " fill="#EEEEEE" transform="translate(553,508)"/>
<path d="M0 0 C0.33 1.32 0.66 2.64 1 4 C1.66 4 2.32 4 3 4 C2.34 6.31 1.68 8.62 1 11 C0.34 10.01 -0.32 9.02 -1 8 C-1.99 8.495 -1.99 8.495 -3 9 C-2.25 2.25 -2.25 2.25 0 0 Z " fill="#242424" transform="translate(391,501)"/>
<path d="M0 0 C0.66 0.33 1.32 0.66 2 1 C0.75023244 4.65316671 0.32901247 5.78065836 -3 8 C-3.28875 8.845625 -3.5775 9.69125 -3.875 10.5625 C-4.24625 11.366875 -4.6175 12.17125 -5 13 C-7.625 13.8125 -7.625 13.8125 -10 14 C-9.566875 13.443125 -9.13375 12.88625 -8.6875 12.3125 C-6.93969171 10.0072212 -6.93969171 10.0072212 -5.5 7.375 C-4 5 -4 5 -1 3 C-0.67 2.01 -0.34 1.02 0 0 Z " fill="#00131E" transform="translate(628,369)"/>
<path d="M0 0 C3.12290635 0.48578543 5.99580359 0.9986012 9 2 C9 2.66 9 3.32 9 4 C9.69867188 4.04898438 10.39734375 4.09796875 11.1171875 4.1484375 C12.02726562 4.22320313 12.93734375 4.29796875 13.875 4.375 C14.77992188 4.44460938 15.68484375 4.51421875 16.6171875 4.5859375 C19 5 19 5 21 7 C12.87444134 6.83007387 7.00353714 5.11704678 0 1 C0 0.67 0 0.34 0 0 Z " fill="#787878" transform="translate(431,692)"/>
<path d="M0 0 C2.62187494 1.04874998 3.79371361 1.64931313 5.25 4.125 C5.4975 4.74375 5.745 5.3625 6 6 C4.35 6.66 2.7 7.32 1 8 C0.01 6.35 -0.98 4.7 -2 3 C-1.34 2.01 -0.68 1.02 0 0 Z " fill="#202020" transform="translate(399,665)"/>
<path d="M0 0 C0.66 0.33 1.32 0.66 2 1 C-1.625 7.75 -1.625 7.75 -5 10 C-7.1875 9.625 -7.1875 9.625 -9 9 C-6 6 -3 3 0 0 Z " fill="#063753" transform="translate(622,374)"/>
<path d="M0 0 C0.66 0.33 1.32 0.66 2 1 C1.67 1.99 1.34 2.98 1 4 C0.34 4 -0.32 4 -1 4 C-1.18175781 4.62648438 -1.36351562 5.25296875 -1.55078125 5.8984375 C-1.80214844 6.71570313 -2.05351562 7.53296875 -2.3125 8.375 C-2.55613281 9.18710937 -2.79976563 9.99921875 -3.05078125 10.8359375 C-4 13 -4 13 -7 15 C-6.48553951 10.57563975 -5.38617933 7.73488939 -3 4 C-3 3.34 -3 2.68 -3 2 C-2.01 1.34 -1.02 0.68 0 0 Z " fill="#022842" transform="translate(399,348)"/>
<path d="M0 0 C1.65 0 3.3 0 5 0 C5 0.66 5 1.32 5 2 C4.01 2 3.02 2 2 2 C2 2.66 2 3.32 2 4 C3.65 4 5.3 4 7 4 C7 4.33 7 4.66 7 5 C4.69 5.33 2.38 5.66 0 6 C0 5.34 0 4.68 0 4 C-1.65 4 -3.3 4 -5 4 C-5 3.34 -5 2.68 -5 2 C-3.35 2 -1.7 2 0 2 C0 1.34 0 0.68 0 0 Z " fill="#1D1F1F" transform="translate(429,466)"/>
<path d="M0 0 C4.29 1.65 8.58 3.3 13 5 C13 5.66 13 6.32 13 7 C10.69 6.67 8.38 6.34 6 6 C6 5.34 6 4.68 6 4 C4.081875 4.061875 4.081875 4.061875 2.125 4.125 C-0.0546875 4.1953125 -0.0546875 4.1953125 -2 4 C-2.66 3.34 -3.32 2.68 -4 2 C-2.68 2 -1.36 2 0 2 C0 1.34 0 0.68 0 0 Z " fill="#474747" transform="translate(418,685)"/>
<path d="M0 0 C0.33 0 0.66 0 1 0 C1 3.96 1 7.92 1 12 C0.34 12 -0.32 12 -1 12 C-2.11445498 9.77109005 -2.16480286 8.46944894 -2.1875 6 C-2.20167969 5.29875 -2.21585938 4.5975 -2.23046875 3.875 C-2 2 -2 2 0 0 Z " fill="#141414" transform="translate(575,470)"/>
<path d="M0 0 C2.31 0.33 4.62 0.66 7 1 C6.67 1.66 6.34 2.32 6 3 C8.97 3.495 8.97 3.495 12 4 C11.67 4.66 11.34 5.32 11 6 C7.7 5.67 4.4 5.34 1 5 C1.99 4.67 2.98 4.34 4 4 C4 3.34 4 2.68 4 2 C2.68 1.67 1.36 1.34 0 1 C0 0.67 0 0.34 0 0 Z " fill="#0D0D0D" transform="translate(434,696)"/>
<path d="M0 0 C0.33 0 0.66 0 1 0 C1.39451163 3.45197673 1.21819966 4.7017938 -0.875 7.5625 C-1.57625 8.366875 -2.2775 9.17125 -3 10 C-3.37125 10.7425 -3.7425 11.485 -4.125 12.25 C-5 14 -5 14 -7 15 C-5.22923588 6.6910299 -5.22923588 6.6910299 -2 4 C-0.82425289 1.90010348 -0.82425289 1.90010348 0 0 Z " fill="#0A99D6" transform="translate(403,351)"/>
<path d="M0 0 C0.66 0 1.32 0 2 0 C-0.23461538 8.3 -0.23461538 8.3 -2 11 C-2.99 11.33 -3.98 11.66 -5 12 C-4.54965877 10.37276701 -4.08944646 8.74826336 -3.625 7.125 C-3.36976563 6.22007812 -3.11453125 5.31515625 -2.8515625 4.3828125 C-2 2 -2 2 0 0 Z " fill="#052B45" transform="translate(639,348)"/>
<path d="M0 0 C0.66 0.33 1.32 0.66 2 1 C-3.15035116 4.46552884 -8.05336117 7.1544914 -14 9 C-14.66 8.67 -15.32 8.34 -16 8 C-12.42232266 5.65214924 -8.88587616 4.12996124 -4.8671875 2.74609375 C-2.7208129 1.96291555 -2.7208129 1.96291555 0 0 Z " fill="#999999" transform="translate(536,530)"/>
<path d="M0 0 C0.99 0.33 1.98 0.66 3 1 C3 1.99 3 2.98 3 4 C2.34 4 1.68 4 1 4 C0.67 4.99 0.34 5.98 0 7 C-0.99 7.66 -1.98 8.32 -3 9 C-2.5020163 5.26512223 -2.12508244 3.18762365 0 0 Z " fill="#0B0B0B" transform="translate(571,488)"/>
<path d="M0 0 C0.66 0.33 1.32 0.66 2 1 C2 2.32 2 3.64 2 5 C-0.95664519 6.4783226 -3.74229737 6.06032783 -7 6 C-6.67 5.34 -6.34 4.68 -6 4 C-5.360625 3.855625 -4.72125 3.71125 -4.0625 3.5625 C-1.61789145 3.13834965 -1.61789145 3.13834965 0 0 Z " fill="#101010" transform="translate(528,537)"/>
<path d="M0 0 C0.79921875 0.00902344 1.5984375 0.01804687 2.421875 0.02734375 C3.02515625 0.03894531 3.6284375 0.05054688 4.25 0.0625 C4.25 0.3925 4.25 0.7225 4.25 1.0625 C2.6721875 1.2171875 2.6721875 1.2171875 1.0625 1.375 C-2.65212333 2.04485011 -4.617691 3.09362006 -7.75 5.0625 C-8.41 4.7325 -9.07 4.4025 -9.75 4.0625 C-9.42 3.0725 -9.09 2.0825 -8.75 1.0625 C-5.8585914 -0.0569613 -3.07237388 -0.04518197 0 0 Z " fill="#000B18" transform="translate(428.75,462.9375)"/>
<path d="M0 0 C0.33 1.32 0.66 2.64 1 4 C-1.95664519 5.4783226 -4.74229737 5.06032783 -8 5 C-6.25 2.9375 -6.25 2.9375 -4 1 C-1.75 1.25 -1.75 1.25 0 2 C0 1.34 0 0.68 0 0 Z " fill="#000B0C" transform="translate(598,394)"/>
<path d="M0 0 C1.98 0 3.96 0 6 0 C4.68 0.99 3.36 1.98 2 3 C2.33 3.66 2.66 4.32 3 5 C0.36 4.67 -2.28 4.34 -5 4 C-4.67 3.34 -4.34 2.68 -4 2 C-2.68 2 -1.36 2 0 2 C0 1.34 0 0.68 0 0 Z " fill="#060606" transform="translate(520,539)"/>
<path d="M0 0 C-5.00577428 3.14648669 -8.98122677 5.3439299 -15 5 C-13.68 4.67 -12.36 4.34 -11 4 C-11 3.34 -11 2.68 -11 2 C-3.57142857 -1.57142857 -3.57142857 -1.57142857 0 0 Z " fill="#0E5272" transform="translate(607,389)"/>
<path d="M0 0 C0.33 0.99 0.66 1.98 1 3 C1.66 3 2.32 3 3 3 C3 4.98 3 6.96 3 9 C2.01 9.495 2.01 9.495 1 10 C-1.29404844 6.55892734 -1.26293056 5.03160191 -1 1 C-0.67 0.67 -0.34 0.34 0 0 Z " fill="#0E0E0E" transform="translate(386,513)"/>
<path d="M0 0 C0 3.10551666 -0.5393715 4.35261084 -2 7 C-2.99 6.67 -3.98 6.34 -5 6 C-5.33 4.35 -5.66 2.7 -6 1 C-5.38125 1.20625 -4.7625 1.4125 -4.125 1.625 C-3.073125 1.810625 -3.073125 1.810625 -2 2 C-1.34 1.34 -0.68 0.68 0 0 Z " fill="#474747" transform="translate(400,493)"/>
<path d="M0 0 C0.33 0 0.66 0 1 0 C1 1.98 1 3.96 1 6 C2.98 5.67 4.96 5.34 7 5 C5.37660195 6.70884005 3.70680947 8.37446717 2 10 C1.34 10 0.68 10 0 10 C0 6.7 0 3.4 0 0 Z " fill="#2B95C1" transform="translate(392,472)"/>
<path d="M0 0 C0 3.32058331 -0.43061972 5.08543662 -2 8 C-4.625 9.3125 -4.625 9.3125 -7 10 C-2.85714286 2.42857143 -2.85714286 2.42857143 0 0 Z " fill="#2192C0" transform="translate(409,340)"/>
<path d="M0 0 C5.61 0 11.22 0 17 0 C17 0.33 17 0.66 17 1 C16.10796875 1.06058594 15.2159375 1.12117188 14.296875 1.18359375 C12.54117187 1.30927734 12.54117187 1.30927734 10.75 1.4375 C9.58984375 1.51871094 8.4296875 1.59992188 7.234375 1.68359375 C4.69022624 1.93247787 2.44046752 2.28114942 0 3 C0 2.01 0 1.02 0 0 Z " fill="#0C9BD8" transform="translate(438,328)"/>
<path d="M0 0 C2.7710688 2.34591852 3.52059284 4.14776201 4.1875 7.6875 C4.34605469 8.49574219 4.50460937 9.30398438 4.66796875 10.13671875 C4.77753906 10.75160156 4.88710938 11.36648438 5 12 C4.01 12.495 4.01 12.495 3 13 C2.49242138 11.58603098 1.99425075 10.16868271 1.5 8.75 C1.08234375 7.56664062 1.08234375 7.56664062 0.65625 6.359375 C0 4 0 4 0 0 Z " fill="#D1D1D1" transform="translate(391,638)"/>
<path d="M0 0 C0 0.66 0 1.32 0 2 C-0.928125 2.1546875 -0.928125 2.1546875 -1.875 2.3125 C-4.36526484 2.87525373 -4.36526484 2.87525373 -6 6 C-6.99 5.67 -7.98 5.34 -9 5 C-9.33 4.34 -9.66 3.68 -10 3 C-8.70990357 2.49596232 -7.41786211 1.99690074 -6.125 1.5 C-5.04605469 1.08234375 -5.04605469 1.08234375 -3.9453125 0.65625 C-2 0 -2 0 0 0 Z " fill="#242424" transform="translate(520,539)"/>
<path d="M0 0 C0.598125 0.20625 1.19625 0.4125 1.8125 0.625 C0.625 2.625 0.625 2.625 -1.1875 4.625 C-3.875 4.875 -3.875 4.875 -6.1875 4.625 C-5.03076352 1.15479057 -3.91311293 -0.67081936 0 0 Z " fill="#03213C" transform="translate(613.1875,384.375)"/>
<path d="M0 0 C0.66 0 1.32 0 2 0 C1.33333333 1.33333333 0.66666667 2.66666667 0 4 C-0.28875 4.70125 -0.5775 5.4025 -0.875 6.125 C-2.25218936 8.42031559 -3.55198504 9.02079402 -6 10 C-5.6875 8.0625 -5.6875 8.0625 -5 6 C-4.01 5.67 -3.02 5.34 -2 5 C-2 4.01 -2 3.02 -2 2 C-1.34 2 -0.68 2 0 2 C0 1.34 0 0.68 0 0 Z " fill="#2293C2" transform="translate(626,366)"/>
<path d="M0 0 C1.32 0.33 2.64 0.66 4 1 C-1.75 6 -1.75 6 -4 6 C-4.33 6.66 -4.66 7.32 -5 8 C-5 5 -5 5 -3 3 C-2.01 3 -1.02 3 0 3 C0 2.01 0 1.02 0 0 Z " fill="#2391BA" transform="translate(404,469)"/>
<path d="M0 0 C0 0.99 0 1.98 0 3 C-1.33333333 4.33333333 -2.66666667 5.66666667 -4 7 C-6.125 6.625 -6.125 6.625 -8 6 C-2.25 1.125 -2.25 1.125 0 0 Z " fill="#323232" transform="translate(542,527)"/>
<path d="M0 0 C2.23551759 3.35327639 2.17283528 3.90743657 1.625 7.6875 C1.51414062 8.49574219 1.40328125 9.30398438 1.2890625 10.13671875 C1.19367188 10.75160156 1.09828125 11.36648438 1 12 C0.67 12 0.34 12 0 12 C-0.19401633 10.18818595 -0.38004375 8.37551468 -0.5625 6.5625 C-0.66691406 5.55316406 -0.77132813 4.54382813 -0.87890625 3.50390625 C-0.91886719 2.67761719 -0.95882813 1.85132813 -1 1 C-0.67 0.67 -0.34 0.34 0 0 Z " fill="#181818" transform="translate(467,545)"/>
<path d="M0 0 C-6.39130435 4.26086957 -6.39130435 4.26086957 -10.3125 3.625 C-10.869375 3.41875 -11.42625 3.2125 -12 3 C-7.77050005 0.58314288 -4.87664009 -0.34833144 0 0 Z " fill="#B4B6B7" transform="translate(436,471)"/>
<path d="M0 0 C-1.32 1.65 -2.64 3.3 -4 5 C-4 4.34 -4 3.68 -4 3 C-4.99 3 -5.98 3 -7 3 C-6.67 2.01 -6.34 1.02 -6 0 C-3.50907189 -1.24546405 -2.58919267 -0.7767578 0 0 Z " fill="#031F38" transform="translate(471,400)"/>
<path d="M0 0 C-0.3125 1.875 -0.3125 1.875 -1 4 C-1.99 4.66 -2.98 5.32 -4 6 C-4.99 5.67 -5.98 5.34 -7 5 C-6.34 5 -5.68 5 -5 5 C-5 4.01 -5 3.02 -5 2 C-2 0 -2 0 0 0 Z " fill="#1E99CF" transform="translate(620,374)"/>
<path d="M0 0 C3 2 3 2 3.6875 4.125 C3.790625 4.74375 3.89375 5.3625 4 6 C2.68 6 1.36 6 0 6 C0 5.34 0 4.68 0 4 C-0.66 4 -1.32 4 -2 4 C-2 3.34 -2 2.68 -2 2 C-1.34 2 -0.68 2 0 2 C0 1.34 0 0.68 0 0 Z " fill="#171717" transform="translate(428,691)"/>
<path d="M0 0 C1.36125 0.12375 1.36125 0.12375 2.75 0.25 C2.42 0.91 2.09 1.57 1.75 2.25 C-0.31640625 2.8828125 -0.31640625 2.8828125 -2.8125 3.375 C-4.05193359 3.62636719 -4.05193359 3.62636719 -5.31640625 3.8828125 C-5.95449219 4.00398438 -6.59257813 4.12515625 -7.25 4.25 C-4.83923194 1.28290085 -3.90322061 0.30024774 0 0 Z " fill="#139FD9" transform="translate(599.25,386.75)"/>
<path d="M0 0 C-4.455 2.97 -4.455 2.97 -9 6 C-8.67 5.01 -8.34 4.02 -8 3 C-7.34 3 -6.68 3 -6 3 C-6 2.01 -6 1.02 -6 0 C-2.25 -1.125 -2.25 -1.125 0 0 Z " fill="#062E4B" transform="translate(420,332)"/>
<path d="M0 0 C1.32 0 2.64 0 4 0 C3.67 0.99 3.34 1.98 3 3 C2.34 3 1.68 3 1 3 C1 3.99 1 4.98 1 6 C0.34 6 -0.32 6 -1 6 C-0.67 4.02 -0.34 2.04 0 0 Z " fill="#13A0D7" transform="translate(627,360)"/>
<path d="M0 0 C2.97 0.33 5.94 0.66 9 1 C5 3 5 3 2 4 C2 3.34 2 2.68 2 2 C1.34 2 0.68 2 0 2 C0 1.34 0 0.68 0 0 Z " fill="#292A2C" transform="translate(420,471)"/>
<path d="M0 0 C-1.28913487 0.67154933 -2.58140204 1.33708859 -3.875 2 C-4.59429687 2.37125 -5.31359375 2.7425 -6.0546875 3.125 C-8 4 -8 4 -10 4 C-9 1 -9 1 -6.6875 -0.25 C-3.83402593 -1.04631835 -2.75197675 -0.8214856 0 0 Z " fill="#2184AB" transform="translate(422,463)"/>
<path d="M0 0 C-3.44450737 2.29633824 -5.93812283 2.54016485 -10 3 C-7.29536552 -0.8183075 -4.37912428 -0.24787496 0 0 Z " fill="#179BD9" transform="translate(435,456)"/>
</svg>
